# Blender v2.79 (sub 0) OBJ File: ''
# www.blender.org
mtllib table2.mtl
o Table
v -84.388100 78.157387 45.243324
v -76.775803 0.002086 43.910000
v -75.677696 78.157387 45.243324
v -75.452202 78.157387 45.017822
v -76.775803 0.002088 37.338799
v -75.452202 78.157387 36.231022
v -75.677696 78.157387 36.005524
v -83.290001 0.002088 37.338902
v -84.388100 78.157387 36.005524
v -84.613602 78.157387 36.231022
v -83.290001 0.002086 43.910000
v -84.613602 78.157387 45.017822
v 84.391197 78.157288 45.250725
v 76.771599 -0.002114 43.914101
v 83.294098 -0.002114 43.914101
v 75.444801 78.157288 45.020924
v 76.771599 -0.002112 37.334702
v 75.674599 78.157288 35.998123
v 83.294098 -0.002112 37.334702
v 84.620903 78.157288 36.227924
v 84.620903 78.157288 45.020924
v 75.674599 78.157288 45.250725
v 75.444801 78.157288 36.227924
v 84.391197 78.157288 35.998123
v -84.391502 78.157219 -45.251575
v -76.771103 0.000014 -43.914600
v -83.294601 0.000014 -43.914600
v -75.443901 78.157219 -45.021278
v -76.771103 0.000012 -37.334202
v -75.674202 78.157219 -35.997177
v -83.294601 0.000012 -37.334202
v -84.621902 78.157219 -36.227478
v -84.621902 78.157219 -45.021278
v -75.674202 78.157219 -45.251575
v -75.443901 78.157219 -36.227478
v -84.391502 78.157219 -35.997177
v 84.391502 78.157219 -45.251575
v 76.771103 0.000014 -43.914600
v 75.674202 78.157219 -45.251575
v 75.443901 78.157219 -45.021278
v 76.771103 0.000012 -37.334202
v 75.443901 78.157219 -36.227478
v 75.674202 78.157219 -35.997177
v 83.294601 0.000012 -37.334202
v 84.391502 78.157219 -35.997177
v 84.621902 78.157219 -36.227478
v 83.294601 0.000014 -43.914600
v 84.621902 78.157219 -45.021278
v -77.730400 78.214783 36.402924
v -77.730400 68.383018 -36.789177
v -77.730400 78.214813 -36.789177
v -78.207802 67.905586 36.402924
v -82.330902 67.905617 -36.789177
v -78.207802 67.905617 -36.789177
v -82.808296 68.382988 36.402924
v -82.808296 78.214813 -36.789177
v -82.808296 68.383018 -36.789177
v -77.730400 68.382988 36.402924
v -82.330902 67.905586 36.402924
v 77.730400 78.214783 36.402924
v 77.730400 68.383018 -36.789177
v 77.730400 68.382988 36.402924
v 78.207802 67.905586 36.402924
v 82.330902 67.905617 -36.789177
v 82.330902 67.905586 36.402924
v 82.808296 68.382988 36.402924
v 82.808296 78.214813 -36.789177
v 82.808296 78.214783 36.402924
v 78.207802 67.905617 -36.789177
v 82.808296 68.383018 -36.789177
v -76.146698 67.886383 42.863522
v 76.146698 67.886383 38.385422
v 76.146698 67.886383 42.863522
v -76.146698 68.205482 38.066223
v 76.146698 78.121384 38.066223
v 76.146698 68.205482 38.066223
v 76.146698 78.121384 43.182621
v -76.146698 68.205482 43.182621
v 76.146698 68.205482 43.182621
v -76.146698 67.886414 -42.863476
v 76.146698 67.886414 -38.385376
v -76.146698 67.886414 -38.385376
v -76.146698 68.205513 -38.066177
v 76.146698 78.121414 -38.066177
v -76.146698 78.121414 -38.066177
v 76.146698 78.121414 -43.182575
v -76.146698 68.205513 -43.182575
v -76.146698 78.121414 -43.182575
v 76.146698 68.205513 -43.182575
v -90.736000 82.180786 44.558331
v -89.433800 82.180786 48.511032
v -90.736000 82.180817 -44.558270
v 85.489502 81.925385 50.064022
v 85.481102 82.180786 49.813232
v -85.481102 82.180786 49.813232
v 90.986801 81.925415 -44.566677
v 90.736000 82.180817 -44.558270
v 90.736000 82.180786 44.558331
v -90.986801 81.925385 44.566723
v -85.489502 81.925415 -50.063976
v -85.481102 82.180817 -49.813171
v 85.481102 82.180817 -49.813171
v -85.489502 81.925385 50.064022
v -86.741699 82.180786 49.729130
v 90.986801 81.925385 44.566723
v 90.651901 82.180786 45.818932
v -90.986801 81.925415 -44.566677
v -90.651901 82.180817 -45.818871
v 85.489502 81.925415 -50.063976
v 86.741699 82.180817 -49.729069
v -90.900902 81.925385 45.855122
v -90.651901 82.180786 45.818932
v -90.428398 81.925385 47.444523
v -90.200996 82.180786 47.338730
v -89.612602 81.925484 48.689823
v -88.367302 81.925385 49.505623
v -88.261497 82.180786 49.278229
v -86.777802 81.925385 49.978123
v 86.777901 81.925385 49.978123
v 86.741699 82.180786 49.729130
v 88.367302 81.925385 49.505623
v 88.261497 82.180786 49.278229
v 89.612602 81.925484 48.689823
v 89.425499 82.180786 48.502731
v 90.428398 81.925385 47.444523
v 90.200996 82.180786 47.338730
v 90.900902 81.925385 45.855122
v -86.777802 81.925415 -49.978077
v -86.741699 82.180817 -49.729069
v -88.367302 81.925415 -49.505577
v -88.261497 82.180817 -49.278168
v -89.612602 81.925514 -48.689777
v -89.433800 82.180817 -48.510971
v -90.428398 81.925514 -47.444477
v -90.200996 82.180817 -47.338669
v -90.900902 81.925415 -45.855076
v 90.900902 81.925514 -45.855076
v 90.651901 82.180817 -45.818871
v 90.428398 81.925514 -47.444477
v 90.200996 82.180817 -47.338669
v 89.612602 81.925514 -48.689777
v 89.433800 82.180817 -48.510971
v 88.367302 81.925415 -49.505577
v 88.261497 82.180817 -49.278168
v 86.777802 81.925415 -49.978077
v -85.489502 78.044083 50.064022
v 85.489502 78.044083 50.064022
v 90.986801 78.044083 44.566723
v 90.986801 78.044113 -44.566677
v -90.986801 78.044113 -44.566677
v -90.986801 78.044083 44.566723
v 85.489502 78.044113 -50.063976
v -85.489502 78.044113 -50.063976
v -86.777901 78.044083 49.978123
v 90.900902 78.044083 45.855122
v -90.900902 78.044113 -45.855076
v 86.777802 78.044113 -49.978077
v -90.900902 78.044083 45.855122
v -90.428398 78.044083 47.444523
v -89.612602 78.044083 48.689823
v -88.367302 78.044083 49.505623
v 86.777901 78.044083 49.978123
v 88.367302 78.044083 49.505623
v 89.612602 78.044083 48.689823
v 90.428398 78.044083 47.444523
v -86.777802 78.044113 -49.978077
v -88.367302 78.044113 -49.505577
v -89.612602 78.044113 -48.689777
v -90.428398 78.044113 -47.444477
v 90.900902 78.044113 -45.855076
v 90.428398 78.044113 -47.444477
v 89.612602 78.044113 -48.689777
v 88.367302 78.044113 -49.505577
v -82.808296 78.214783 36.402924
v 77.730400 78.214813 -36.789177
v -76.146698 67.886383 38.385422
v -76.146698 78.121384 38.066223
v -76.146698 78.121384 43.182621
v 76.146698 67.886414 -42.863476
v 76.146698 68.205513 -38.066177
vt 0.743427 0.947924
vt 0.779923 0.542104
vt 0.788618 0.947589
vt 0.932868 0.541771
vt 0.899075 0.889671
vt 0.893726 0.541893
vt 0.890323 0.541771
vt 0.856529 0.889671
vt 0.851546 0.541771
vt 0.805281 0.520157
vt 0.770881 0.867936
vt 0.766140 0.520157
vt 0.861000 0.685400
vt 0.837100 0.685400
vt 0.861000 0.661400
vt 0.736350 0.947814
vt 0.746127 0.542354
vt 0.928249 0.889671
vt 0.934205 0.541771
vt 0.892268 0.541893
vt 0.800176 0.867936
vt 0.806619 0.520157
vt 0.833968 0.947366
vt 0.791428 0.542019
vt 0.825275 0.541769
vt 0.838324 0.829426
vt 0.804410 0.481040
vt 0.833098 0.481040
vt 0.792619 0.831007
vt 0.764295 0.482377
vt 0.793348 0.482499
vt 0.925319 0.820456
vt 0.891283 0.472070
vt 0.923374 0.472070
vt 0.918700 0.661000
vt 0.943500 0.661000
vt 0.943500 0.686000
vt 0.841046 0.947199
vt 0.850359 0.830277
vt 0.848900 0.830277
vt 0.849630 0.481769
vt 0.794077 0.830885
vt 0.924955 0.820456
vt 0.886402 0.946980
vt 0.843856 0.541631
vt 0.877709 0.541381
vt 0.793562 0.878488
vt 0.764631 0.543837
vt 0.792711 0.544202
vt 0.913468 0.869030
vt 0.880891 0.534744
vt 0.908849 0.534744
vt 0.844130 0.881405
vt 0.813255 0.546876
vt 0.841456 0.547120
vt 0.744700 0.685100
vt 0.721800 0.685100
vt 0.721700 0.662000
vt 0.893480 0.946814
vt 0.795021 0.878488
vt 0.914927 0.869030
vt 0.845589 0.881405
vt 0.900387 0.935232
vt 0.935883 0.540951
vt 0.944326 0.934907
vt 0.757326 0.818633
vt 0.791605 0.471097
vt 0.796467 0.818633
vt 0.803275 0.823495
vt 0.837190 0.475838
vt 0.839256 0.823495
vt 0.846428 0.825197
vt 0.880586 0.477540
vt 0.885570 0.825197
vt 0.803000 0.664800
vt 0.803000 0.688700
vt 0.779000 0.664800
vt 0.893511 0.935126
vt 0.903003 0.541194
vt 0.951200 0.934744
vt 0.805341 0.475838
vt 0.803275 0.823495
vt 0.839378 0.823495
vt 0.075015 0.200254
vt 0.464502 0.147846
vt 0.464502 0.200254
vt 0.075015 0.135291
vt 0.464502 0.113394
vt 0.464502 0.135291
vt 0.073555 0.104196
vt 0.463042 0.051788
vt 0.463042 0.104196
vt 0.075015 0.147846
vt 0.464502 0.144342
vt 0.073555 0.107700
vt 0.463042 0.107700
vt 0.106199 0.011936
vt 0.495685 0.064345
vt 0.106199 0.064345
vt 0.107658 0.086243
vt 0.496999 0.108140
vt 0.107658 0.108140
vt 0.104155 0.128432
vt 0.493641 0.180695
vt 0.104155 0.180695
vt 0.495685 0.067849
vt 0.106199 0.067849
vt 0.104155 0.124783
vt 0.493641 0.128432
vt 0.562700 0.201300
vt 0.007600 0.217700
vt 0.007600 0.201300
vt 0.564000 0.052600
vt 0.008900 0.088700
vt 0.008900 0.052600
vt 0.006600 0.139700
vt 0.561700 0.175900
vt 0.006600 0.175900
vt 0.561700 0.177500
vt 0.006600 0.177500
vt 0.008900 0.050900
vt 0.561100 0.198300
vt 0.006000 0.182000
vt 0.561100 0.182000
vt 0.563400 0.045500
vt 0.008300 0.009300
vt 0.563400 0.009300
vt 0.007500 0.133700
vt 0.562700 0.097600
vt 0.562700 0.133700
vt 0.007500 0.097600
vt 0.562700 0.095900
vt 0.008300 0.047100
vt 0.563400 0.047100
vt 0.016900 0.633100
vt 0.019900 0.618700
vt 0.016300 0.952600
vt 0.655000 0.607300
vt 0.655000 0.608600
vt 0.029200 0.608500
vt 0.944400 0.170200
vt 0.944400 0.171600
vt 0.617500 0.170900
vt 0.942000 0.211300
vt 0.942000 0.212600
vt 0.614900 0.212000
vt 0.652900 0.991400
vt 0.652900 0.992700
vt 0.027000 0.992500
vt 0.029200 0.607100
vt 0.024500 0.608400
vt 0.617500 0.169600
vt 0.612700 0.170900
vt 0.614900 0.210700
vt 0.610200 0.212000
vt 0.027100 0.991200
vt 0.022300 0.992500
vt 0.946700 0.211300
vt 0.946700 0.212600
vt 0.952700 0.211400
vt 0.952700 0.212700
vt 0.958100 0.211500
vt 0.957900 0.212800
vt 0.018500 0.607200
vt 0.018500 0.608500
vt 0.013300 0.608600
vt 0.024500 0.607100
vt 0.659600 0.607300
vt 0.659700 0.608600
vt 0.665600 0.607400
vt 0.665600 0.608600
vt 0.671000 0.607500
vt 0.670800 0.608800
vt 0.606800 0.169600
vt 0.606800 0.170900
vt 0.601600 0.171100
vt 0.612800 0.169600
vt 0.657600 0.991400
vt 0.657600 0.992700
vt 0.663600 0.991400
vt 0.663600 0.992700
vt 0.669000 0.991500
vt 0.668800 0.992800
vt 0.604200 0.210700
vt 0.604300 0.212000
vt 0.599000 0.212100
vt 0.610200 0.210700
vt 0.949100 0.170200
vt 0.949100 0.171600
vt 0.955100 0.170300
vt 0.955100 0.171600
vt 0.960500 0.170400
vt 0.960300 0.171700
vt 0.016400 0.991200
vt 0.016400 0.992500
vt 0.011200 0.992700
vt 0.022400 0.991200
vt 0.029200 0.592900
vt 0.655000 0.593100
vt 0.617500 0.155400
vt 0.944500 0.156000
vt 0.614900 0.196400
vt 0.942100 0.197000
vt 0.027000 0.977000
vt 0.652900 0.977200
vt 0.024400 0.592900
vt 0.612700 0.155400
vt 0.610200 0.196400
vt 0.022300 0.977000
vt 0.946800 0.197100
vt 0.952900 0.197100
vt 0.958400 0.197200
vt 0.012900 0.593100
vt 0.018400 0.593000
vt 0.659700 0.593100
vt 0.665800 0.593200
vt 0.671300 0.593200
vt 0.601200 0.155500
vt 0.606600 0.155400
vt 0.657700 0.977200
vt 0.663800 0.977200
vt 0.669200 0.977300
vt 0.598600 0.196500
vt 0.604100 0.196500
vt 0.949200 0.156000
vt 0.955300 0.156100
vt 0.960800 0.156200
vt 0.010800 0.977100
vt 0.016200 0.977000
vt 0.030500 0.588300
vt 0.030500 0.222600
vt 0.655000 0.588300
vt 0.646200 0.614300
vt 0.650400 0.614600
vt 0.646000 0.971500
vt 0.662300 0.952700
vt 0.661900 0.962800
vt 0.659300 0.967100
vt 0.659700 0.618800
vt 0.662400 0.623100
vt 0.663000 0.633200
vt 0.655000 0.222600
vt 0.659700 0.222900
vt 0.675000 0.568200
vt 0.673000 0.578700
vt 0.670000 0.583300
vt 0.670000 0.227600
vt 0.673000 0.232200
vt 0.675000 0.242700
vt 0.033300 0.614300
vt 0.033100 0.971600
vt 0.029000 0.614600
vt 0.028900 0.971200
vt 0.023800 0.616200
vt 0.023600 0.969600
vt 0.019600 0.967000
vt 0.017400 0.623000
vt 0.016900 0.962700
vt 0.025800 0.588000
vt 0.015500 0.583300
vt 0.012500 0.578700
vt 0.010400 0.568200
vt 0.010400 0.242700
vt 0.012500 0.232200
vt 0.015500 0.227600
vt 0.650300 0.971200
vt 0.655700 0.616200
vt 0.655500 0.969600
vt 0.659700 0.588000
vt 0.665500 0.224600
vt 0.665500 0.586300
vt 0.025800 0.222900
vt 0.020000 0.586300
vt 0.020000 0.224600
vt 0.885460 0.889671
vt 0.837200 0.661400
vt 0.788736 0.947700
vt 0.799061 0.829426
vt 0.753720 0.830521
vt 0.889460 0.820456
vt 0.918700 0.686000
vt 0.841164 0.947316
vt 0.756000 0.878123
vt 0.876272 0.869030
vt 0.806569 0.881284
vt 0.744700 0.662000
vt 0.762309 0.471097
vt 0.851412 0.477540
vt 0.779000 0.688700
vt 0.075015 0.113394
vt 0.073555 0.051788
vt 0.075015 0.144342
vt 0.495685 0.011936
vt 0.496999 0.086243
vt 0.493641 0.124783
vt 0.562700 0.217700
vt 0.564000 0.088700
vt 0.561700 0.139700
vt 0.564000 0.050900
vt 0.006000 0.198300
vt 0.008300 0.045500
vt 0.007500 0.095900
vt 0.013100 0.607300
vt 0.601300 0.169700
vt 0.598800 0.210800
vt 0.011000 0.991300
vt 0.662400 0.957200
vt 0.663000 0.628700
vt 0.674700 0.572900
vt 0.674700 0.238000
vt 0.016900 0.628600
vt 0.016300 0.957100
vt 0.010700 0.572900
vt 0.010800 0.238000
vn 0.0000 -0.0171 0.9999
vn 0.9231 -0.0211 0.3841
vn 0.9999 -0.0170 -0.0018
vn 0.9231 -0.0211 -0.3841
vn 0.0000 -0.0171 -0.9999
vn -0.9231 -0.0211 -0.3841
vn -0.9999 -0.0170 0.0018
vn -0.9231 -0.0211 0.3841
vn -0.0000 -1.0000 -0.0000
vn -0.7069 -0.0220 0.7069
vn 0.9999 -0.0170 0.0018
vn 0.7069 -0.0220 0.7069
vn 0.7070 -0.0220 -0.7069
vn -0.9999 -0.0170 -0.0018
vn -0.7069 -0.0220 -0.7069
vn -0.0019 -0.0171 0.9999
vn -0.9999 -0.0170 0.0000
vn -0.3840 -0.0212 -0.9231
vn -0.0019 -0.0171 -0.9999
vn 0.9231 -0.0211 -0.3840
vn 0.9999 -0.0170 0.0019
vn 0.9999 -0.0170 -0.0019
vn 0.7071 -0.0220 0.7068
vn 0.9231 -0.0211 0.3840
vn -0.3840 -0.0212 0.9231
vn 0.7071 -0.0220 -0.7068
vn 0.9999 -0.0170 0.0000
vn 0.3840 -0.0212 0.9231
vn 0.0019 -0.0171 0.9999
vn -0.9230 -0.0211 0.3842
vn -0.9999 -0.0170 -0.0019
vn -0.9999 -0.0170 0.0019
vn -0.7068 -0.0220 -0.7071
vn -0.9230 -0.0211 -0.3842
vn 0.7069 -0.0220 -0.7069
vn -0.7068 -0.0220 0.7071
vn 0.3839 -0.0212 -0.9231
vn 0.3839 -0.0212 0.9231
vn 0.7068 -0.0220 -0.7071
vn 0.0019 -0.0171 -0.9999
vn 0.7068 -0.0220 0.7071
vn 1.0000 0.0000 0.0000
vn 0.9239 -0.3827 -0.0000
vn -0.9239 -0.3827 -0.0000
vn -1.0000 0.0000 0.0000
vn 0.7071 -0.7071 -0.0000
vn -0.7071 -0.7071 -0.0000
vn -0.0000 -0.3827 -0.9239
vn 0.0000 0.0000 -1.0000
vn 0.0000 -0.3828 -0.9239
vn 0.0000 0.0000 1.0000
vn 0.0000 -0.3827 0.9239
vn 0.0000 -0.7071 0.7071
vn 0.0000 -0.7072 -0.7070
vn 0.0000 -0.3828 0.9238
vn 0.0000 -0.7071 -0.7071
vn 0.0000 -0.7072 0.7070
vn -0.0000 1.0000 0.0000
vn 0.0308 0.3758 0.9262
vn 0.0237 0.7008 0.7129
vn -0.0238 0.7008 0.7129
vn 0.9262 0.3758 -0.0308
vn 0.7129 0.7009 -0.0237
vn 0.7129 0.7008 0.0238
vn -0.9262 0.3758 0.0308
vn -0.7129 0.7008 0.0237
vn -0.7129 0.7008 -0.0238
vn -0.0308 0.3758 -0.9262
vn -0.0237 0.7009 -0.7129
vn 0.0238 0.7008 -0.7129
vn -0.0309 0.3758 0.9262
vn -0.1271 0.7015 0.7012
vn 0.9262 0.3758 0.0308
vn 0.7012 0.7016 0.1271
vn -0.9262 0.3758 -0.0308
vn -0.7012 0.7016 -0.1271
vn 0.0308 0.3758 -0.9262
vn 0.1271 0.7016 -0.7012
vn -0.9145 0.3700 0.1637
vn -0.7012 0.7015 0.1273
vn -0.8439 0.3668 0.3915
vn -0.6474 0.7006 0.3001
vn -0.6586 0.3641 0.6585
vn -0.5025 0.7037 0.5023
vn -0.3915 0.3667 0.8439
vn -0.3001 0.7007 0.6473
vn -0.1636 0.3700 0.9145
vn 0.1637 0.3700 0.9145
vn 0.1273 0.7015 0.7012
vn 0.3915 0.3668 0.8439
vn 0.2999 0.7019 0.6461
vn 0.6568 0.3730 0.6553
vn 0.4936 0.7185 0.4900
vn 0.8431 0.3675 0.3925
vn 0.6459 0.7007 0.3029
vn 0.9145 0.3700 0.1636
vn -0.1637 0.3700 -0.9145
vn -0.1273 0.7015 -0.7012
vn -0.3915 0.3668 -0.8439
vn -0.3001 0.7006 -0.6474
vn -0.6585 0.3641 -0.6586
vn -0.5022 0.7038 -0.5025
vn -0.8439 0.3668 -0.3915
vn -0.6471 0.7009 -0.3000
vn -0.9145 0.3700 -0.1636
vn 0.9144 0.3701 -0.1637
vn 0.7011 0.7017 -0.1272
vn 0.8439 0.3669 -0.3915
vn 0.6473 0.7007 -0.3000
vn 0.6586 0.3642 -0.6585
vn 0.5024 0.7038 -0.5023
vn 0.3915 0.3667 -0.8439
vn 0.3000 0.7008 -0.6472
vn 0.1636 0.3700 -0.9145
vn -0.0333 0.0000 0.9994
vn 0.0333 0.0000 0.9994
vn 0.9994 0.0000 0.0333
vn 0.9994 0.0000 -0.0333
vn -0.9994 0.0000 -0.0333
vn -0.9994 0.0000 0.0333
vn 0.0333 0.0000 -0.9994
vn -0.0333 0.0000 -0.9994
vn -0.1768 0.0000 0.9842
vn 0.9842 0.0000 0.1768
vn -0.9842 0.0000 -0.1768
vn 0.1768 0.0000 -0.9842
vn -0.9842 0.0000 0.1768
vn -0.9071 0.0000 0.4209
vn -0.7071 0.0000 0.7071
vn -0.4209 0.0000 0.9071
vn 0.1768 0.0000 0.9842
vn 0.4209 0.0000 0.9071
vn 0.7071 0.0000 0.7071
vn 0.9071 0.0000 0.4209
vn -0.1768 0.0000 -0.9842
vn -0.4209 0.0000 -0.9071
vn -0.7071 0.0000 -0.7071
vn -0.9071 0.0000 -0.4209
vn 0.9842 0.0000 -0.1768
vn 0.9071 0.0000 -0.4209
vn 0.7071 0.0000 -0.7071
vn 0.4209 0.0000 -0.9071
vn 0.0000 -0.3828 0.9239
usemtl table
s 1
f 1/1/1 2/2/1 3/3/1
f 4/4/2 5/5/3 6/6/4
f 7/7/5 8/8/5 9/9/5
f 10/10/6 11/11/7 12/12/8
f 8/13/9 5/14/9 11/15/9
f 1/1/10 12/16/8 11/17/7
f 2/18/11 4/4/2 3/19/12
f 5/5/3 7/20/13 6/6/4
f 8/21/14 10/10/6 9/22/15
f 13/23/1 14/24/16 15/25/1
f 16/26/17 17/27/17 14/28/17
f 18/29/18 19/30/5 17/31/19
f 20/32/20 15/33/21 19/34/22
f 15/35/9 14/36/9 17/37/9
f 13/23/23 15/25/21 21/38/24
f 22/39/25 16/40/10 14/41/16
f 23/42/15 18/29/18 17/31/19
f 24/43/26 20/32/20 19/34/22
f 25/44/5 26/45/5 27/46/5
f 28/47/4 29/48/27 26/49/22
f 30/50/28 31/51/1 29/52/29
f 32/53/30 27/54/31 31/55/32
f 27/56/9 26/57/9 29/58/9
f 25/44/33 27/46/31 33/59/34
f 34/60/35 28/47/4 26/49/22
f 35/61/12 30/50/28 29/52/29
f 36/62/36 32/53/30 31/55/32
f 37/63/37 38/64/19 39/65/18
f 40/66/17 41/67/17 42/68/17
f 43/69/25 44/70/29 45/71/38
f 46/72/27 47/73/27 48/74/27
f 44/75/9 41/76/9 47/77/9
f 37/63/37 48/78/39 47/79/40
f 38/64/19 40/80/15 39/65/18
f 41/81/16 43/69/25 42/82/10
f 44/70/29 46/83/41 45/71/38
f 49/84/42 50/85/43 51/86/42
f 52/87/9 53/88/9 54/89/9
f 55/90/44 56/91/45 57/92/44
f 58/93/43 54/94/46 50/85/43
f 59/95/47 57/92/44 53/96/47
f 60/97/45 61/98/44 62/99/44
f 63/100/9 64/101/9 65/102/9
f 66/103/43 67/104/42 68/105/42
f 62/99/44 69/106/47 63/107/47
f 65/108/46 70/109/43 66/103/43
f 71/110/9 72/111/9 73/112/9
f 74/113/48 75/114/49 76/115/50
f 77/116/51 78/117/52 79/118/52
f 79/118/52 71/119/53 73/120/53
f 72/121/54 74/113/48 76/115/50
f 80/122/9 81/123/9 82/124/9
f 83/125/55 84/126/51 85/127/51
f 86/128/49 87/129/48 88/130/49
f 89/131/48 80/132/56 87/129/48
f 81/133/57 83/125/55 82/134/57
f 90/135/58 91/136/58 92/137/58
f 93/138/59 94/139/60 95/140/61
f 96/141/62 97/142/63 98/143/64
f 99/144/65 90/145/66 92/146/67
f 100/147/68 101/148/69 102/149/70
f 103/150/71 95/140/61 104/151/72
f 105/152/73 98/143/64 106/153/74
f 107/154/75 92/146/67 108/155/76
f 109/156/77 102/149/70 110/157/78
f 111/158/79 112/159/80 90/145/66
f 113/160/81 114/161/82 112/159/80
f 115/162/83 91/163/84 114/161/82
f 116/164/85 117/165/86 91/166/84
f 118/167/87 104/151/72 117/165/86
f 119/168/88 120/169/89 94/139/60
f 121/170/90 122/171/91 120/169/89
f 123/172/92 124/173/93 122/171/91
f 125/174/94 126/175/95 124/176/93
f 127/177/96 106/153/74 126/175/95
f 128/178/97 129/179/98 101/148/69
f 130/180/99 131/181/100 129/179/98
f 132/182/101 133/183/102 131/181/100
f 134/184/103 135/185/104 133/186/102
f 136/187/105 108/155/76 135/185/104
f 137/188/106 138/189/107 97/142/63
f 139/190/108 140/191/109 138/189/107
f 141/192/110 142/193/111 140/191/109
f 143/194/112 144/195/113 142/196/111
f 145/197/114 110/157/78 144/195/113
f 93/138/59 146/198/115 147/199/116
f 96/141/62 148/200/117 149/201/118
f 99/144/65 150/202/119 151/203/120
f 100/147/68 152/204/121 153/205/122
f 103/150/71 154/206/123 146/198/115
f 105/152/73 155/207/124 148/200/117
f 107/154/75 156/208/125 150/202/119
f 109/156/77 157/209/126 152/204/121
f 111/158/79 151/203/120 158/210/127
f 113/160/81 158/210/127 159/211/128
f 115/162/83 159/211/128 160/212/129
f 116/164/85 160/213/129 161/214/130
f 118/167/87 161/214/130 154/206/123
f 119/168/88 147/199/116 162/215/131
f 121/170/90 162/215/131 163/216/132
f 123/172/92 163/216/132 164/217/133
f 125/174/94 164/218/133 165/219/134
f 127/177/96 165/219/134 155/207/124
f 128/178/97 153/205/122 166/220/135
f 130/180/99 166/220/135 167/221/136
f 132/182/101 167/221/136 168/222/137
f 134/184/103 168/223/137 169/224/138
f 136/187/105 169/224/138 156/208/125
f 137/188/106 149/201/118 170/225/139
f 139/190/108 170/225/139 171/226/140
f 141/192/110 171/226/140 172/227/141
f 143/194/112 172/228/141 173/229/142
f 145/197/114 173/229/142 157/209/126
f 146/230/9 153/231/9 147/232/9
f 94/233/58 120/234/58 102/235/58
f 97/236/58 140/237/58 142/238/58
f 124/239/58 126/240/58 98/241/58
f 152/242/9 157/243/9 147/232/9
f 148/244/9 165/245/9 164/246/9
f 172/247/9 171/248/9 149/249/9
f 95/250/58 94/233/58 101/251/58
f 104/252/58 95/250/58 129/253/58
f 117/254/58 104/252/58 131/255/58
f 91/136/58 117/254/58 133/256/58
f 90/135/58 114/257/58 91/136/58
f 133/256/58 135/258/58 92/137/58
f 146/230/9 154/259/9 153/231/9
f 160/260/9 159/261/9 151/262/9
f 150/263/9 169/264/9 168/265/9
f 120/234/58 110/266/58 102/235/58
f 122/267/58 144/268/58 110/266/58
f 124/239/58 142/238/58 144/268/58
f 98/241/58 97/236/58 142/238/58
f 157/243/9 162/269/9 147/232/9
f 173/270/9 163/271/9 162/269/9
f 172/247/9 164/246/9 163/271/9
f 149/249/9 148/244/9 164/246/9
f 154/259/9 166/272/9 153/231/9
f 161/273/9 167/274/9 166/272/9
f 160/260/9 168/265/9 167/274/9
f 151/262/9 150/263/9 168/265/9
f 1/1/1 11/17/1 2/2/1
f 4/4/2 2/18/11 5/5/3
f 7/7/5 5/275/5 8/8/5
f 10/10/6 8/21/14 11/11/7
f 5/14/9 2/276/9 11/15/9
f 13/23/1 22/277/25 14/24/16
f 16/26/17 23/278/17 17/27/17
f 18/29/18 24/279/5 19/30/5
f 20/32/20 21/280/24 15/33/21
f 17/37/9 19/281/9 15/35/9
f 25/44/5 34/282/5 26/45/5
f 28/47/4 35/283/27 29/48/27
f 30/50/28 36/284/1 31/51/1
f 32/53/30 33/285/34 27/54/31
f 29/58/9 31/286/9 27/56/9
f 37/63/37 47/79/40 38/64/19
f 40/66/17 38/287/17 41/67/17
f 43/69/25 41/81/16 44/70/29
f 46/72/27 44/288/27 47/73/27
f 41/76/9 38/289/9 47/77/9
f 49/84/42 58/93/43 50/85/43
f 52/87/9 59/290/9 53/88/9
f 55/90/44 174/291/45 56/91/45
f 58/93/43 52/292/46 54/94/46
f 59/95/47 55/90/44 57/92/44
f 60/97/45 175/293/45 61/98/44
f 63/100/9 69/294/9 64/101/9
f 66/103/43 70/109/43 67/104/42
f 62/99/44 61/98/44 69/106/47
f 65/108/46 64/295/46 70/109/43
f 71/110/9 176/296/9 72/111/9
f 74/113/48 177/297/49 75/114/49
f 77/116/51 178/298/51 78/117/52
f 79/118/52 78/117/52 71/119/53
f 72/121/54 176/299/54 74/113/48
f 80/122/9 179/300/9 81/123/9
f 83/125/55 180/301/143 84/126/51
f 86/128/49 89/131/48 87/129/48
f 89/131/48 179/302/56 80/132/56
f 81/133/57 180/301/143 83/125/55
f 91/136/58 133/256/58 92/137/58
f 95/140/61 103/150/71 93/138/59
f 98/143/64 105/152/73 96/141/62
f 92/146/67 107/154/75 99/144/65
f 102/149/70 109/156/77 100/147/68
f 104/151/72 118/167/87 103/150/71
f 106/153/74 127/177/96 105/152/73
f 108/155/76 136/187/105 107/154/75
f 110/157/78 145/197/114 109/156/77
f 90/145/66 99/144/65 111/158/79
f 112/159/80 111/158/79 113/160/81
f 114/161/82 113/160/81 115/162/83
f 91/166/84 115/303/83 116/164/85
f 117/165/86 116/164/85 118/167/87
f 94/139/60 93/138/59 119/168/88
f 120/169/89 119/168/88 121/170/90
f 122/171/91 121/170/90 123/172/92
f 124/176/93 123/304/92 125/174/94
f 126/175/95 125/174/94 127/177/96
f 101/148/69 100/147/68 128/178/97
f 129/179/98 128/178/97 130/180/99
f 131/181/100 130/180/99 132/182/101
f 133/186/102 132/305/101 134/184/103
f 135/185/104 134/184/103 136/187/105
f 97/142/63 96/141/62 137/188/106
f 138/189/107 137/188/106 139/190/108
f 140/191/109 139/190/108 141/192/110
f 142/196/111 141/306/110 143/194/112
f 144/195/113 143/194/112 145/197/114
f 93/138/59 103/150/71 146/198/115
f 96/141/62 105/152/73 148/200/117
f 99/144/65 107/154/75 150/202/119
f 100/147/68 109/156/77 152/204/121
f 103/150/71 118/167/87 154/206/123
f 105/152/73 127/177/96 155/207/124
f 107/154/75 136/187/105 156/208/125
f 109/156/77 145/197/114 157/209/126
f 111/158/79 99/144/65 151/203/120
f 113/160/81 111/158/79 158/210/127
f 115/162/83 113/160/81 159/211/128
f 116/164/85 115/303/83 160/213/129
f 118/167/87 116/164/85 161/214/130
f 119/168/88 93/138/59 147/199/116
f 121/170/90 119/168/88 162/215/131
f 123/172/92 121/170/90 163/216/132
f 125/174/94 123/304/92 164/218/133
f 127/177/96 125/174/94 165/219/134
f 128/178/97 100/147/68 153/205/122
f 130/180/99 128/178/97 166/220/135
f 132/182/101 130/180/99 167/221/136
f 134/184/103 132/305/101 168/223/137
f 136/187/105 134/184/103 169/224/138
f 137/188/106 96/141/62 149/201/118
f 139/190/108 137/188/106 170/225/139
f 141/192/110 139/190/108 171/226/140
f 143/194/112 141/306/110 172/228/141
f 145/197/114 143/194/112 173/229/142
f 153/231/9 152/242/9 147/232/9
f 97/236/58 138/307/58 140/237/58
f 126/240/58 106/308/58 98/241/58
f 148/244/9 155/309/9 165/245/9
f 171/248/9 170/310/9 149/249/9
f 94/233/58 102/235/58 101/251/58
f 95/250/58 101/251/58 129/253/58
f 104/252/58 129/253/58 131/255/58
f 117/254/58 131/255/58 133/256/58
f 90/135/58 112/311/58 114/257/58
f 135/258/58 108/312/58 92/137/58
f 159/261/9 158/313/9 151/262/9
f 150/263/9 156/314/9 169/264/9
f 120/234/58 122/267/58 110/266/58
f 122/267/58 124/239/58 144/268/58
f 124/239/58 98/241/58 142/238/58
f 157/243/9 173/270/9 162/269/9
f 173/270/9 172/247/9 163/271/9
f 172/247/9 149/249/9 164/246/9
f 154/259/9 161/273/9 166/272/9
f 161/273/9 160/260/9 167/274/9
f 160/260/9 151/262/9 168/265/9
