# Blender v2.79 (sub 0) OBJ File: ''
# www.blender.org
mtllib table2.mtl
o Table
v -84.388100 78.157379 45.243336
v -76.775803 0.002079 43.910000
v -75.677696 78.157379 45.243336
v -75.452202 78.157379 45.017834
v -76.775803 0.002082 37.338799
v -75.452202 78.157379 36.231033
v -75.677696 78.157379 36.005535
v -83.290001 0.002082 37.338902
v -84.388100 78.157379 36.005535
v -84.613602 78.157379 36.231033
v -83.290001 0.002079 43.910000
v -84.613602 78.157379 45.017834
v 84.391197 78.157280 45.250736
v 76.771599 -0.002121 43.914101
v 83.294098 -0.002121 43.914101
v 75.444801 78.157280 45.020935
v 76.771599 -0.002118 37.334702
v 75.674599 78.157280 35.998135
v 83.294098 -0.002118 37.334702
v 84.620903 78.157280 36.227936
v 84.620903 78.157280 45.020935
v 75.674599 78.157280 45.250736
v 75.444801 78.157280 36.227936
v 84.391197 78.157280 35.998135
v -84.391502 78.157227 -45.251564
v -76.771103 0.000021 -43.914600
v -83.294601 0.000021 -43.914600
v -75.443901 78.157227 -45.021267
v -76.771103 0.000018 -37.334202
v -75.674202 78.157227 -35.997166
v -83.294601 0.000018 -37.334202
v -84.621902 78.157227 -36.227467
v -84.621902 78.157227 -45.021267
v -75.674202 78.157227 -45.251564
v -75.443901 78.157227 -36.227467
v -84.391502 78.157227 -35.997166
v 84.391502 78.157227 -45.251564
v 76.771103 0.000021 -43.914600
v 75.674202 78.157227 -45.251564
v 75.443901 78.157227 -45.021267
v 76.771103 0.000018 -37.334202
v 75.443901 78.157227 -36.227467
v 75.674202 78.157227 -35.997166
v 83.294601 0.000018 -37.334202
v 84.391502 78.157227 -35.997166
v 84.621902 78.157227 -36.227467
v 83.294601 0.000021 -43.914600
v 84.621902 78.157227 -45.021267
v -77.730400 78.214775 36.402935
v -77.730400 68.383026 -36.789165
v -77.730400 78.214821 -36.789165
v -78.207802 67.905579 36.402935
v -82.330902 67.905624 -36.789165
v -78.207802 67.905624 -36.789165
v -82.808296 68.382980 36.402935
v -82.808296 78.214821 -36.789165
v -82.808296 68.383026 -36.789165
v -77.730400 68.382980 36.402935
v -82.330902 67.905579 36.402935
v 77.730400 78.214775 36.402935
v 77.730400 68.383026 -36.789165
v 77.730400 68.382980 36.402935
v 78.207802 67.905579 36.402935
v 82.330902 67.905624 -36.789165
v 82.330902 67.905579 36.402935
v 82.808296 68.382980 36.402935
v 82.808296 78.214821 -36.789165
v 82.808296 78.214775 36.402935
v 78.207802 67.905624 -36.789165
v 82.808296 68.383026 -36.789165
v -76.146698 67.886375 42.863533
v 76.146698 67.886375 38.385433
v 76.146698 67.886375 42.863533
v -76.146698 68.205475 38.066235
v 76.146698 78.121376 38.066235
v 76.146698 68.205475 38.066235
v 76.146698 78.121376 43.182632
v -76.146698 68.205475 43.182632
v 76.146698 68.205475 43.182632
v -76.146698 67.886421 -42.863464
v 76.146698 67.886421 -38.385365
v -76.146698 67.886421 -38.385365
v -76.146698 68.205521 -38.066166
v 76.146698 78.121422 -38.066166
v -76.146698 78.121422 -38.066166
v 76.146698 78.121422 -43.182564
v -76.146698 68.205521 -43.182564
v -76.146698 78.121422 -43.182564
v 76.146698 68.205521 -43.182564
v -90.736000 82.180779 44.558346
v -89.433800 82.180779 48.511047
v -90.736000 82.180824 -44.558254
v 85.489502 81.925377 50.064034
v 85.481102 82.180779 49.813248
v -85.481102 82.180779 49.813248
v 90.986801 81.925423 -44.566666
v 90.736000 82.180824 -44.558254
v 90.736000 82.180779 44.558346
v -90.986801 81.925377 44.566734
v -85.489502 81.925423 -50.063965
v -85.481102 82.180824 -49.813156
v 85.481102 82.180824 -49.813156
v -85.489502 81.925377 50.064034
v -86.741699 82.180779 49.729145
v 90.986801 81.925377 44.566734
v 90.651901 82.180779 45.818947
v -90.986801 81.925423 -44.566666
v -90.651901 82.180824 -45.818855
v 85.489502 81.925423 -50.063965
v 86.741699 82.180824 -49.729053
v -90.900902 81.925377 45.855133
v -90.651901 82.180779 45.818947
v -90.428398 81.925377 47.444534
v -90.200996 82.180779 47.338745
v -89.612602 81.925476 48.689835
v -88.367302 81.925377 49.505634
v -88.261497 82.180779 49.278244
v -86.777802 81.925377 49.978134
v 86.777901 81.925377 49.978134
v 86.741699 82.180779 49.729145
v 88.367302 81.925377 49.505634
v 88.261497 82.180779 49.278244
v 89.612602 81.925476 48.689835
v 89.425499 82.180779 48.502747
v 90.428398 81.925377 47.444534
v 90.200996 82.180779 47.338745
v 90.900902 81.925377 45.855133
v -86.777802 81.925423 -49.978065
v -86.741699 82.180824 -49.729053
v -88.367302 81.925423 -49.505566
v -88.261497 82.180824 -49.278152
v -89.612602 81.925522 -48.689766
v -89.433800 82.180824 -48.510956
v -90.428398 81.925522 -47.444466
v -90.200996 82.180824 -47.338654
v -90.900902 81.925423 -45.855064
v 90.900902 81.925522 -45.855064
v 90.651901 82.180824 -45.818855
v 90.428398 81.925522 -47.444466
v 90.200996 82.180824 -47.338654
v 89.612602 81.925522 -48.689766
v 89.433800 82.180824 -48.510956
v 88.367302 81.925423 -49.505566
v 88.261497 82.180824 -49.278152
v 86.777802 81.925423 -49.978065
v -85.489502 78.044075 50.064034
v 85.489502 78.044075 50.064034
v 90.986801 78.044075 44.566734
v 90.986801 78.044121 -44.566666
v -90.986801 78.044121 -44.566666
v -90.986801 78.044075 44.566734
v 85.489502 78.044121 -50.063965
v -85.489502 78.044121 -50.063965
v -86.777901 78.044075 49.978134
v 90.900902 78.044075 45.855133
v -90.900902 78.044121 -45.855064
v 86.777802 78.044121 -49.978065
v -90.900902 78.044075 45.855133
v -90.428398 78.044075 47.444534
v -89.612602 78.044075 48.689835
v -88.367302 78.044075 49.505634
v 86.777901 78.044075 49.978134
v 88.367302 78.044075 49.505634
v 89.612602 78.044075 48.689835
v 90.428398 78.044075 47.444534
v -86.777802 78.044121 -49.978065
v -88.367302 78.044121 -49.505566
v -89.612602 78.044121 -48.689766
v -90.428398 78.044121 -47.444466
v 90.900902 78.044121 -45.855064
v 90.428398 78.044121 -47.444466
v 89.612602 78.044121 -48.689766
v 88.367302 78.044121 -49.505566
v -82.808296 78.214775 36.402935
v 77.730400 78.214821 -36.789165
v -76.146698 67.886375 38.385433
v -76.146698 78.121376 38.066235
v -76.146698 78.121376 43.182632
v 76.146698 67.886421 -42.863464
v 76.146698 68.205521 -38.066166
vt 0.743427 0.947924
vt 0.779923 0.542104
vt 0.788618 0.947589
vt 0.932868 0.541771
vt 0.899075 0.889671
vt 0.893726 0.541893
vt 0.890323 0.541771
vt 0.856529 0.889671
vt 0.851546 0.541771
vt 0.805281 0.520157
vt 0.770881 0.867936
vt 0.766140 0.520157
vt 0.861000 0.685400
vt 0.837100 0.685400
vt 0.861000 0.661400
vt 0.736350 0.947814
vt 0.746127 0.542354
vt 0.928249 0.889671
vt 0.934205 0.541771
vt 0.892268 0.541893
vt 0.800176 0.867936
vt 0.806619 0.520157
vt 0.833968 0.947366
vt 0.791428 0.542019
vt 0.825275 0.541769
vt 0.838324 0.829426
vt 0.804410 0.481040
vt 0.833098 0.481040
vt 0.792619 0.831007
vt 0.764295 0.482377
vt 0.793348 0.482499
vt 0.925319 0.820456
vt 0.891283 0.472070
vt 0.923374 0.472070
vt 0.918700 0.661000
vt 0.943500 0.661000
vt 0.943500 0.686000
vt 0.841046 0.947199
vt 0.850359 0.830277
vt 0.848900 0.830277
vt 0.849630 0.481769
vt 0.794077 0.830885
vt 0.924955 0.820456
vt 0.886402 0.946980
vt 0.843856 0.541631
vt 0.877709 0.541381
vt 0.793562 0.878488
vt 0.764631 0.543837
vt 0.792711 0.544202
vt 0.913468 0.869030
vt 0.880891 0.534744
vt 0.908849 0.534744
vt 0.844130 0.881405
vt 0.813255 0.546876
vt 0.841456 0.547120
vt 0.744700 0.685100
vt 0.721800 0.685100
vt 0.721700 0.662000
vt 0.893480 0.946814
vt 0.795021 0.878488
vt 0.914927 0.869030
vt 0.845589 0.881405
vt 0.900387 0.935232
vt 0.935883 0.540951
vt 0.944326 0.934907
vt 0.798500 0.938932
vt 0.847522 0.541956
vt 0.843269 0.940044
vt 0.880736 0.541265
vt 0.894599 0.939135
vt 0.850217 0.940058
vt 0.846428 0.825197
vt 0.880586 0.477540
vt 0.885570 0.825197
vt 0.803000 0.664800
vt 0.803000 0.688700
vt 0.779000 0.664800
vt 0.893511 0.935126
vt 0.903003 0.541194
vt 0.951200 0.934744
vt 0.837190 0.475838
vt 0.839378 0.823495
vt 0.839256 0.823495
vt 0.075015 0.200254
vt 0.464502 0.147846
vt 0.464502 0.200254
vt 0.075015 0.135291
vt 0.464502 0.113394
vt 0.464502 0.135291
vt 0.073555 0.104196
vt 0.463042 0.051788
vt 0.463042 0.104196
vt 0.075015 0.147846
vt 0.464502 0.144342
vt 0.073555 0.107700
vt 0.463042 0.107700
vt 0.106199 0.011936
vt 0.495685 0.064345
vt 0.106199 0.064345
vt 0.107658 0.086243
vt 0.496999 0.108140
vt 0.107658 0.108140
vt 0.104155 0.128432
vt 0.493641 0.180695
vt 0.104155 0.180695
vt 0.495685 0.067849
vt 0.106199 0.067849
vt 0.104155 0.124783
vt 0.493641 0.128432
vt 0.562700 0.201300
vt 0.007600 0.217700
vt 0.007600 0.201300
vt 0.564000 0.052600
vt 0.008900 0.088700
vt 0.008900 0.052600
vt 0.006600 0.139700
vt 0.561700 0.175900
vt 0.006600 0.175900
vt 0.561700 0.177500
vt 0.006600 0.177500
vt 0.008900 0.050900
vt 0.561100 0.198300
vt 0.006000 0.182000
vt 0.561100 0.182000
vt 0.563400 0.045500
vt 0.008300 0.009300
vt 0.563400 0.009300
vt 0.007500 0.133700
vt 0.562700 0.097600
vt 0.562700 0.133700
vt 0.007500 0.097600
vt 0.562700 0.095900
vt 0.008300 0.047100
vt 0.563400 0.047100
vt 0.016900 0.633100
vt 0.019900 0.618700
vt 0.016300 0.952600
vt 0.655000 0.607300
vt 0.655000 0.608600
vt 0.029200 0.608500
vt 0.944400 0.170200
vt 0.944400 0.171600
vt 0.617500 0.170900
vt 0.942000 0.211300
vt 0.942000 0.212600
vt 0.614900 0.212000
vt 0.652900 0.991400
vt 0.652900 0.992700
vt 0.027000 0.992500
vt 0.029200 0.607100
vt 0.024500 0.608400
vt 0.617500 0.169600
vt 0.612700 0.170900
vt 0.614900 0.210700
vt 0.610200 0.212000
vt 0.027100 0.991200
vt 0.022300 0.992500
vt 0.946700 0.211300
vt 0.946700 0.212600
vt 0.952700 0.211400
vt 0.952700 0.212700
vt 0.958100 0.211500
vt 0.957900 0.212800
vt 0.018500 0.607200
vt 0.018500 0.608500
vt 0.013300 0.608600
vt 0.024500 0.607100
vt 0.659600 0.607300
vt 0.659700 0.608600
vt 0.665600 0.607400
vt 0.665600 0.608600
vt 0.671000 0.607500
vt 0.670800 0.608800
vt 0.606800 0.169600
vt 0.606800 0.170900
vt 0.601600 0.171100
vt 0.612800 0.169600
vt 0.657600 0.991400
vt 0.657600 0.992700
vt 0.663600 0.991400
vt 0.663600 0.992700
vt 0.669000 0.991500
vt 0.668800 0.992800
vt 0.604200 0.210700
vt 0.604300 0.212000
vt 0.599000 0.212100
vt 0.610200 0.210700
vt 0.949100 0.170200
vt 0.949100 0.171600
vt 0.955100 0.170300
vt 0.955100 0.171600
vt 0.960500 0.170400
vt 0.960300 0.171700
vt 0.016400 0.991200
vt 0.016400 0.992500
vt 0.011200 0.992700
vt 0.022400 0.991200
vt 0.029200 0.592900
vt 0.655000 0.593100
vt 0.617500 0.155400
vt 0.944500 0.156000
vt 0.614900 0.196400
vt 0.942100 0.197000
vt 0.027000 0.977000
vt 0.652900 0.977200
vt 0.024400 0.592900
vt 0.612700 0.155400
vt 0.610200 0.196400
vt 0.022300 0.977000
vt 0.946800 0.197100
vt 0.952900 0.197100
vt 0.958400 0.197200
vt 0.012900 0.593100
vt 0.018400 0.593000
vt 0.659700 0.593100
vt 0.665800 0.593200
vt 0.671300 0.593200
vt 0.601200 0.155500
vt 0.606600 0.155400
vt 0.657700 0.977200
vt 0.663800 0.977200
vt 0.669200 0.977300
vt 0.598600 0.196500
vt 0.604100 0.196500
vt 0.949200 0.156000
vt 0.955300 0.156100
vt 0.960800 0.156200
vt 0.010800 0.977100
vt 0.016200 0.977000
vt 0.030500 0.588300
vt 0.030500 0.222600
vt 0.655000 0.588300
vt 0.646200 0.614300
vt 0.650400 0.614600
vt 0.646000 0.971500
vt 0.662300 0.952700
vt 0.661900 0.962800
vt 0.659300 0.967100
vt 0.659700 0.618800
vt 0.662400 0.623100
vt 0.663000 0.633200
vt 0.655000 0.222600
vt 0.659700 0.222900
vt 0.675000 0.568200
vt 0.673000 0.578700
vt 0.670000 0.583300
vt 0.670000 0.227600
vt 0.673000 0.232200
vt 0.675000 0.242700
vt 0.033300 0.614300
vt 0.033100 0.971600
vt 0.029000 0.614600
vt 0.028900 0.971200
vt 0.023800 0.616200
vt 0.023600 0.969600
vt 0.019600 0.967000
vt 0.017400 0.623000
vt 0.016900 0.962700
vt 0.025800 0.588000
vt 0.015500 0.583300
vt 0.012500 0.578700
vt 0.010400 0.568200
vt 0.010400 0.242700
vt 0.012500 0.232200
vt 0.015500 0.227600
vt 0.650300 0.971200
vt 0.655700 0.616200
vt 0.655500 0.969600
vt 0.659700 0.588000
vt 0.665500 0.224600
vt 0.665500 0.586300
vt 0.025800 0.222900
vt 0.020000 0.586300
vt 0.020000 0.224600
vt 0.885460 0.889671
vt 0.837200 0.661400
vt 0.788736 0.947700
vt 0.799061 0.829426
vt 0.753720 0.830521
vt 0.889460 0.820456
vt 0.918700 0.686000
vt 0.841164 0.947316
vt 0.756000 0.878123
vt 0.876272 0.869030
vt 0.806569 0.881284
vt 0.744700 0.662000
vt 0.814023 0.541123
vt 0.851412 0.477540
vt 0.779000 0.688700
vt 0.075015 0.113394
vt 0.073555 0.051788
vt 0.075015 0.144342
vt 0.495685 0.011936
vt 0.496999 0.086243
vt 0.493641 0.124783
vt 0.562700 0.217700
vt 0.564000 0.088700
vt 0.561700 0.139700
vt 0.564000 0.050900
vt 0.006000 0.198300
vt 0.008300 0.045500
vt 0.007500 0.095900
vt 0.013100 0.607300
vt 0.601300 0.169700
vt 0.598800 0.210800
vt 0.011000 0.991300
vt 0.662400 0.957200
vt 0.663000 0.628700
vt 0.674700 0.572900
vt 0.674700 0.238000
vt 0.016900 0.628600
vt 0.016300 0.957100
vt 0.010700 0.572900
vt 0.010800 0.238000
vn 0.0000 -0.0171 0.9999
vn 0.9231 -0.0211 0.3841
vn 0.9999 -0.0170 -0.0018
vn 0.9231 -0.0211 -0.3841
vn 0.0000 -0.0171 -0.9999
vn -0.9231 -0.0211 -0.3841
vn -0.9999 -0.0170 0.0018
vn -0.9231 -0.0211 0.3841
vn -0.0000 -1.0000 -0.0000
vn -0.7069 -0.0220 0.7069
vn 0.9999 -0.0170 0.0018
vn 0.7070 -0.0220 0.7069
vn 0.7069 -0.0220 -0.7069
vn -0.9999 -0.0170 -0.0018
vn -0.7069 -0.0220 -0.7069
vn -0.0019 -0.0171 0.9999
vn -0.9999 -0.0170 0.0000
vn -0.3840 -0.0212 -0.9231
vn -0.0019 -0.0171 -0.9999
vn 0.9231 -0.0211 -0.3840
vn 0.9999 -0.0170 0.0019
vn 0.9999 -0.0170 -0.0019
vn 0.7071 -0.0220 0.7068
vn 0.9231 -0.0211 0.3840
vn -0.3840 -0.0212 0.9231
vn 0.7071 -0.0220 -0.7068
vn 0.9999 -0.0170 -0.0000
vn 0.3840 -0.0212 0.9231
vn 0.0019 -0.0171 0.9999
vn -0.9230 -0.0211 0.3842
vn -0.9999 -0.0170 -0.0019
vn -0.9999 -0.0170 0.0019
vn -0.7068 -0.0220 -0.7071
vn -0.9230 -0.0211 -0.3842
vn 0.7069 -0.0220 0.7069
vn -0.7068 -0.0220 0.7071
vn 0.3839 -0.0212 -0.9231
vn 0.3839 -0.0212 0.9231
vn 0.7068 -0.0220 -0.7071
vn 0.0019 -0.0171 -0.9999
vn 0.7068 -0.0220 0.7071
vn 1.0000 0.0000 0.0000
vn 0.9239 -0.3827 -0.0000
vn -0.9239 -0.3827 -0.0000
vn -1.0000 0.0000 0.0000
vn 0.7071 -0.7071 -0.0000
vn -0.7071 -0.7071 -0.0000
vn -0.0000 -0.3827 -0.9239
vn 0.0000 0.0000 -1.0000
vn 0.0000 -0.3828 -0.9238
vn 0.0000 0.0000 1.0000
vn 0.0000 -0.3827 0.9239
vn 0.0000 -0.7071 0.7071
vn 0.0000 -0.7072 -0.7070
vn 0.0000 -0.7071 -0.7071
vn 0.0000 -0.7072 0.7070
vn -0.0000 1.0000 0.0000
vn 0.0308 0.3758 0.9262
vn 0.0237 0.7008 0.7129
vn -0.0238 0.7008 0.7129
vn 0.9262 0.3758 -0.0308
vn 0.7129 0.7009 -0.0237
vn 0.7129 0.7008 0.0238
vn -0.9262 0.3758 0.0308
vn -0.7129 0.7008 0.0237
vn -0.7129 0.7008 -0.0237
vn -0.0308 0.3758 -0.9262
vn -0.0237 0.7009 -0.7129
vn 0.0238 0.7009 -0.7129
vn -0.0308 0.3758 0.9262
vn -0.1271 0.7015 0.7012
vn 0.9262 0.3758 0.0308
vn 0.7012 0.7016 0.1271
vn -0.9262 0.3758 -0.0308
vn -0.7012 0.7016 -0.1271
vn 0.0308 0.3758 -0.9262
vn 0.1271 0.7016 -0.7012
vn -0.9145 0.3700 0.1637
vn -0.7012 0.7015 0.1273
vn -0.8439 0.3668 0.3915
vn -0.6474 0.7006 0.3001
vn -0.6586 0.3641 0.6585
vn -0.5025 0.7038 0.5023
vn -0.3915 0.3667 0.8439
vn -0.3001 0.7007 0.6473
vn -0.1636 0.3700 0.9145
vn 0.1637 0.3700 0.9145
vn 0.1273 0.7015 0.7012
vn 0.3915 0.3668 0.8439
vn 0.2999 0.7018 0.6461
vn 0.6568 0.3730 0.6553
vn 0.4937 0.7185 0.4900
vn 0.8431 0.3675 0.3925
vn 0.6459 0.7007 0.3029
vn 0.9145 0.3700 0.1636
vn -0.1637 0.3700 -0.9145
vn -0.1273 0.7015 -0.7012
vn -0.3915 0.3668 -0.8439
vn -0.3001 0.7006 -0.6474
vn -0.6585 0.3641 -0.6586
vn -0.5022 0.7038 -0.5025
vn -0.8439 0.3668 -0.3915
vn -0.6471 0.7009 -0.3000
vn -0.9145 0.3700 -0.1636
vn 0.9144 0.3701 -0.1637
vn 0.7011 0.7016 -0.1272
vn 0.8439 0.3669 -0.3915
vn 0.6473 0.7007 -0.3000
vn 0.6586 0.3642 -0.6585
vn 0.5024 0.7038 -0.5022
vn 0.3915 0.3667 -0.8439
vn 0.3000 0.7008 -0.6472
vn 0.1636 0.3700 -0.9145
vn -0.0333 0.0000 0.9994
vn 0.0333 0.0000 0.9994
vn 0.9994 0.0000 0.0333
vn 0.9994 0.0000 -0.0333
vn -0.9994 0.0000 -0.0333
vn -0.9994 0.0000 0.0333
vn 0.0333 0.0000 -0.9994
vn -0.0333 0.0000 -0.9994
vn -0.1768 0.0000 0.9842
vn 0.9842 0.0000 0.1768
vn -0.9842 0.0000 -0.1768
vn 0.1768 0.0000 -0.9842
vn -0.9842 0.0000 0.1768
vn -0.9071 0.0000 0.4209
vn -0.7071 0.0000 0.7071
vn -0.4209 0.0000 0.9071
vn 0.1768 0.0000 0.9842
vn 0.4209 0.0000 0.9071
vn 0.7071 0.0000 0.7071
vn 0.9071 0.0000 0.4209
vn -0.1768 0.0000 -0.9842
vn -0.4209 0.0000 -0.9071
vn -0.7071 0.0000 -0.7071
vn -0.9071 0.0000 -0.4209
vn 0.9842 0.0000 -0.1768
vn 0.9071 0.0000 -0.4209
vn 0.7071 0.0000 -0.7071
vn 0.4209 0.0000 -0.9071
vn 0.0000 -0.3828 0.9238
usemtl table
s 1
f 1/1/1 2/2/1 3/3/1
f 4/4/2 5/5/3 6/6/4
f 7/7/5 8/8/5 9/9/5
f 10/10/6 11/11/7 12/12/8
f 8/13/9 5/14/9 11/15/9
f 1/1/10 12/16/8 11/17/7
f 2/18/11 4/4/2 3/19/12
f 5/5/3 7/20/13 6/6/4
f 8/21/14 10/10/6 9/22/15
f 13/23/1 14/24/16 15/25/1
f 16/26/17 17/27/17 14/28/17
f 18/29/18 19/30/5 17/31/19
f 20/32/20 15/33/21 19/34/22
f 15/35/9 14/36/9 17/37/9
f 13/23/23 15/25/21 21/38/24
f 22/39/25 16/40/10 14/41/16
f 23/42/15 18/29/18 17/31/19
f 24/43/26 20/32/20 19/34/22
f 25/44/5 26/45/5 27/46/5
f 28/47/4 29/48/27 26/49/22
f 30/50/28 31/51/1 29/52/29
f 32/53/30 27/54/31 31/55/32
f 27/56/9 26/57/9 29/58/9
f 25/44/33 27/46/31 33/59/34
f 34/60/13 28/47/4 26/49/22
f 35/61/35 30/50/28 29/52/29
f 36/62/36 32/53/30 31/55/32
f 37/63/37 38/64/19 39/65/18
f 40/66/17 41/67/17 42/68/17
f 44/69/29 45/70/38 43/71/25
f 46/72/27 47/73/27 48/74/27
f 44/75/9 41/76/9 47/77/9
f 37/63/37 48/78/39 47/79/40
f 38/64/19 40/80/15 39/65/18
f 41/67/16 43/71/25 42/68/10
f 44/81/29 46/82/41 45/83/38
f 49/84/42 50/85/43 51/86/42
f 52/87/9 53/88/9 54/89/9
f 55/90/44 56/91/45 57/92/44
f 58/93/43 54/94/46 50/85/43
f 59/95/47 57/92/44 53/96/47
f 60/97/45 61/98/44 62/99/44
f 63/100/9 64/101/9 65/102/9
f 66/103/43 67/104/42 68/105/42
f 62/99/44 69/106/47 63/107/47
f 65/108/46 70/109/43 66/103/43
f 71/110/9 72/111/9 73/112/9
f 74/113/48 75/114/49 76/115/50
f 77/116/51 78/117/52 79/118/52
f 79/118/52 71/119/53 73/120/53
f 72/121/54 74/113/48 76/115/50
f 80/122/9 81/123/9 82/124/9
f 83/125/52 84/126/51 85/127/51
f 86/128/49 87/129/48 88/130/49
f 89/131/48 80/132/55 87/129/48
f 81/133/56 83/125/52 82/134/56
f 90/135/57 91/136/57 92/137/57
f 93/138/58 94/139/59 95/140/60
f 96/141/61 97/142/62 98/143/63
f 99/144/64 90/145/65 92/146/66
f 100/147/67 101/148/68 102/149/69
f 103/150/70 95/140/60 104/151/71
f 105/152/72 98/143/63 106/153/73
f 107/154/74 92/146/66 108/155/75
f 109/156/76 102/149/69 110/157/77
f 111/158/78 112/159/79 90/145/65
f 113/160/80 114/161/81 112/159/79
f 115/162/82 91/163/83 114/161/81
f 116/164/84 117/165/85 91/166/83
f 118/167/86 104/151/71 117/165/85
f 119/168/87 120/169/88 94/139/59
f 121/170/89 122/171/90 120/169/88
f 123/172/91 124/173/92 122/171/90
f 125/174/93 126/175/94 124/176/92
f 127/177/95 106/153/73 126/175/94
f 128/178/96 129/179/97 101/148/68
f 130/180/98 131/181/99 129/179/97
f 132/182/100 133/183/101 131/181/99
f 134/184/102 135/185/103 133/186/101
f 136/187/104 108/155/75 135/185/103
f 137/188/105 138/189/106 97/142/62
f 139/190/107 140/191/108 138/189/106
f 141/192/109 142/193/110 140/191/108
f 143/194/111 144/195/112 142/196/110
f 145/197/113 110/157/77 144/195/112
f 93/138/58 146/198/114 147/199/115
f 96/141/61 148/200/116 149/201/117
f 99/144/64 150/202/118 151/203/119
f 100/147/67 152/204/120 153/205/121
f 103/150/70 154/206/122 146/198/114
f 105/152/72 155/207/123 148/200/116
f 107/154/74 156/208/124 150/202/118
f 109/156/76 157/209/125 152/204/120
f 111/158/78 151/203/119 158/210/126
f 113/160/80 158/210/126 159/211/127
f 115/162/82 159/211/127 160/212/128
f 116/164/84 160/213/128 161/214/129
f 118/167/86 161/214/129 154/206/122
f 119/168/87 147/199/115 162/215/130
f 121/170/89 162/215/130 163/216/131
f 123/172/91 163/216/131 164/217/132
f 125/174/93 164/218/132 165/219/133
f 127/177/95 165/219/133 155/207/123
f 128/178/96 153/205/121 166/220/134
f 130/180/98 166/220/134 167/221/135
f 132/182/100 167/221/135 168/222/136
f 134/184/102 168/223/136 169/224/137
f 136/187/104 169/224/137 156/208/124
f 137/188/105 149/201/117 170/225/138
f 139/190/107 170/225/138 171/226/139
f 141/192/109 171/226/139 172/227/140
f 143/194/111 172/228/140 173/229/141
f 145/197/113 173/229/141 157/209/125
f 146/230/9 153/231/9 147/232/9
f 94/233/57 120/234/57 102/235/57
f 97/236/57 140/237/57 142/238/57
f 124/239/57 126/240/57 98/241/57
f 152/242/9 157/243/9 147/232/9
f 148/244/9 165/245/9 164/246/9
f 172/247/9 171/248/9 149/249/9
f 95/250/57 94/233/57 101/251/57
f 104/252/57 95/250/57 129/253/57
f 117/254/57 104/252/57 131/255/57
f 91/136/57 117/254/57 133/256/57
f 90/135/57 114/257/57 91/136/57
f 133/256/57 135/258/57 92/137/57
f 146/230/9 154/259/9 153/231/9
f 160/260/9 159/261/9 151/262/9
f 150/263/9 169/264/9 168/265/9
f 120/234/57 110/266/57 102/235/57
f 122/267/57 144/268/57 110/266/57
f 124/239/57 142/238/57 144/268/57
f 98/241/57 97/236/57 142/238/57
f 157/243/9 162/269/9 147/232/9
f 173/270/9 163/271/9 162/269/9
f 172/247/9 164/246/9 163/271/9
f 149/249/9 148/244/9 164/246/9
f 154/259/9 166/272/9 153/231/9
f 161/273/9 167/274/9 166/272/9
f 160/260/9 168/265/9 167/274/9
f 151/262/9 150/263/9 168/265/9
f 1/1/1 11/17/1 2/2/1
f 4/4/2 2/18/11 5/5/3
f 7/7/5 5/275/5 8/8/5
f 10/10/6 8/21/14 11/11/7
f 5/14/9 2/276/9 11/15/9
f 13/23/1 22/277/25 14/24/16
f 16/26/17 23/278/17 17/27/17
f 18/29/18 24/279/5 19/30/5
f 20/32/20 21/280/24 15/33/21
f 17/37/9 19/281/9 15/35/9
f 25/44/5 34/282/5 26/45/5
f 28/47/4 35/283/27 29/48/27
f 30/50/28 36/284/1 31/51/1
f 32/53/30 33/285/34 27/54/31
f 29/58/9 31/286/9 27/56/9
f 37/63/37 47/79/40 38/64/19
f 40/66/17 38/287/17 41/67/17
f 46/72/27 44/288/27 47/73/27
f 41/76/9 38/289/9 47/77/9
f 49/84/42 58/93/43 50/85/43
f 52/87/9 59/290/9 53/88/9
f 55/90/44 174/291/45 56/91/45
f 58/93/43 52/292/46 54/94/46
f 59/95/47 55/90/44 57/92/44
f 60/97/45 175/293/45 61/98/44
f 63/100/9 69/294/9 64/101/9
f 66/103/43 70/109/43 67/104/42
f 62/99/44 61/98/44 69/106/47
f 65/108/46 64/295/46 70/109/43
f 71/110/9 176/296/9 72/111/9
f 74/113/48 177/297/49 75/114/49
f 77/116/51 178/298/51 78/117/52
f 79/118/52 78/117/52 71/119/53
f 72/121/54 176/299/54 74/113/48
f 80/122/9 179/300/9 81/123/9
f 83/125/52 180/301/142 84/126/51
f 86/128/49 89/131/48 87/129/48
f 89/131/48 179/302/55 80/132/55
f 81/133/56 180/301/142 83/125/52
f 91/136/57 133/256/57 92/137/57
f 95/140/60 103/150/70 93/138/58
f 98/143/63 105/152/72 96/141/61
f 92/146/66 107/154/74 99/144/64
f 102/149/69 109/156/76 100/147/67
f 104/151/71 118/167/86 103/150/70
f 106/153/73 127/177/95 105/152/72
f 108/155/75 136/187/104 107/154/74
f 110/157/77 145/197/113 109/156/76
f 90/145/65 99/144/64 111/158/78
f 112/159/79 111/158/78 113/160/80
f 114/161/81 113/160/80 115/162/82
f 91/166/83 115/303/82 116/164/84
f 117/165/85 116/164/84 118/167/86
f 94/139/59 93/138/58 119/168/87
f 120/169/88 119/168/87 121/170/89
f 122/171/90 121/170/89 123/172/91
f 124/176/92 123/304/91 125/174/93
f 126/175/94 125/174/93 127/177/95
f 101/148/68 100/147/67 128/178/96
f 129/179/97 128/178/96 130/180/98
f 131/181/99 130/180/98 132/182/100
f 133/186/101 132/305/100 134/184/102
f 135/185/103 134/184/102 136/187/104
f 97/142/62 96/141/61 137/188/105
f 138/189/106 137/188/105 139/190/107
f 140/191/108 139/190/107 141/192/109
f 142/196/110 141/306/109 143/194/111
f 144/195/112 143/194/111 145/197/113
f 93/138/58 103/150/70 146/198/114
f 96/141/61 105/152/72 148/200/116
f 99/144/64 107/154/74 150/202/118
f 100/147/67 109/156/76 152/204/120
f 103/150/70 118/167/86 154/206/122
f 105/152/72 127/177/95 155/207/123
f 107/154/74 136/187/104 156/208/124
f 109/156/76 145/197/113 157/209/125
f 111/158/78 99/144/64 151/203/119
f 113/160/80 111/158/78 158/210/126
f 115/162/82 113/160/80 159/211/127
f 116/164/84 115/303/82 160/213/128
f 118/167/86 116/164/84 161/214/129
f 119/168/87 93/138/58 147/199/115
f 121/170/89 119/168/87 162/215/130
f 123/172/91 121/170/89 163/216/131
f 125/174/93 123/304/91 164/218/132
f 127/177/95 125/174/93 165/219/133
f 128/178/96 100/147/67 153/205/121
f 130/180/98 128/178/96 166/220/134
f 132/182/100 130/180/98 167/221/135
f 134/184/102 132/305/100 168/223/136
f 136/187/104 134/184/102 169/224/137
f 137/188/105 96/141/61 149/201/117
f 139/190/107 137/188/105 170/225/138
f 141/192/109 139/190/107 171/226/139
f 143/194/111 141/306/109 172/228/140
f 145/197/113 143/194/111 173/229/141
f 153/231/9 152/242/9 147/232/9
f 97/236/57 138/307/57 140/237/57
f 126/240/57 106/308/57 98/241/57
f 148/244/9 155/309/9 165/245/9
f 171/248/9 170/310/9 149/249/9
f 94/233/57 102/235/57 101/251/57
f 95/250/57 101/251/57 129/253/57
f 104/252/57 129/253/57 131/255/57
f 117/254/57 131/255/57 133/256/57
f 90/135/57 112/311/57 114/257/57
f 135/258/57 108/312/57 92/137/57
f 159/261/9 158/313/9 151/262/9
f 150/263/9 156/314/9 169/264/9
f 120/234/57 122/267/57 110/266/57
f 122/267/57 124/239/57 144/268/57
f 124/239/57 98/241/57 142/238/57
f 157/243/9 173/270/9 162/269/9
f 173/270/9 172/247/9 163/271/9
f 172/247/9 149/249/9 164/246/9
f 154/259/9 161/273/9 166/272/9
f 161/273/9 160/260/9 167/274/9
f 160/260/9 151/262/9 168/265/9
f 44/69/29 43/71/25 41/67/16
