# Blender v2.79 (sub 0) OBJ File: 'table.blend'
# www.blender.org
mtllib table3.mtl
o Table.001
v -90.736000 82.180794 44.558315
v -89.433800 82.180794 48.511017
v -90.736000 82.180809 -44.558285
v 85.489502 81.925392 50.064011
v 85.481102 82.180794 49.813217
v -85.481102 82.180794 49.813217
v 90.986801 81.925407 -44.566689
v 90.736000 82.180809 -44.558285
v 90.736000 82.180794 44.558315
v -90.986801 81.925392 44.566711
v -85.489502 81.925407 -50.063988
v -85.481102 82.180809 -49.813187
v 85.481102 82.180809 -49.813187
v -85.489502 81.925392 50.064011
v -86.741699 82.180794 49.729115
v 90.986801 81.925392 44.566711
v 90.651901 82.180794 45.818916
v -90.986801 81.925407 -44.566689
v -90.651901 82.180809 -45.818886
v 85.489502 81.925407 -50.063988
v 86.741699 82.180809 -49.729084
v -90.900902 81.925392 45.855110
v -90.651901 82.180794 45.818916
v -90.428398 81.925392 47.444511
v -90.200996 82.180794 47.338715
v -89.612602 81.925491 48.689812
v -88.367302 81.925392 49.505611
v -88.261497 82.180794 49.278214
v -86.777802 81.925392 49.978111
v 86.777901 81.925392 49.978111
v 86.741699 82.180794 49.729115
v 88.367302 81.925392 49.505611
v 88.261497 82.180794 49.278214
v 89.612602 81.925491 48.689812
v 89.425499 82.180794 48.502716
v 90.428398 81.925392 47.444511
v 90.200996 82.180794 47.338715
v 90.900902 81.925392 45.855110
v -86.777802 81.925407 -49.978088
v -86.741699 82.180809 -49.729084
v -88.367302 81.925407 -49.505589
v -88.261497 82.180809 -49.278183
v -89.612602 81.925507 -48.689789
v -89.433800 82.180809 -48.510986
v -90.428398 81.925507 -47.444489
v -90.200996 82.180809 -47.338684
v -90.900902 81.925407 -45.855087
v 90.900902 81.925507 -45.855087
v 90.651901 82.180809 -45.818886
v 90.428398 81.925507 -47.444489
v 90.200996 82.180809 -47.338684
v 89.612602 81.925507 -48.689789
v 89.433800 82.180809 -48.510986
v 88.367302 81.925407 -49.505589
v 88.261497 82.180809 -49.278183
v 86.777802 81.925407 -49.978088
v -85.489502 78.044090 50.064011
v 85.489502 78.044090 50.064011
v 90.986801 78.044090 44.566711
v 90.986801 78.044106 -44.566689
v -90.986801 78.044106 -44.566689
v -90.986801 78.044090 44.566711
v 85.489502 78.044106 -50.063988
v -85.489502 78.044106 -50.063988
v -86.777901 78.044090 49.978111
v 90.900902 78.044090 45.855110
v -90.900902 78.044106 -45.855087
v 86.777802 78.044106 -49.978088
v -90.900902 78.044090 45.855110
v -90.428398 78.044090 47.444511
v -89.612602 78.044090 48.689812
v -88.367302 78.044090 49.505611
v 86.777901 78.044090 49.978111
v 88.367302 78.044090 49.505611
v 89.612602 78.044090 48.689812
v 90.428398 78.044090 47.444511
v -86.777802 78.044106 -49.978088
v -88.367302 78.044106 -49.505589
v -89.612602 78.044106 -48.689789
v -90.428398 78.044106 -47.444489
v 90.900902 78.044106 -45.855087
v 90.428398 78.044106 -47.444489
v 89.612602 78.044106 -48.689789
v 88.367302 78.044106 -49.505589
vt 0.016900 0.633100
vt 0.019900 0.618700
vt 0.016300 0.952600
vt 0.655000 0.607300
vt 0.655000 0.608600
vt 0.029200 0.608500
vt 0.944400 0.170200
vt 0.944400 0.171600
vt 0.617500 0.170900
vt 0.942000 0.211300
vt 0.942000 0.212600
vt 0.614900 0.212000
vt 0.652900 0.991400
vt 0.652900 0.992700
vt 0.027000 0.992500
vt 0.029200 0.607100
vt 0.024500 0.608400
vt 0.617500 0.169600
vt 0.612700 0.170900
vt 0.614900 0.210700
vt 0.610200 0.212000
vt 0.027100 0.991200
vt 0.022300 0.992500
vt 0.946700 0.211300
vt 0.946700 0.212600
vt 0.952700 0.211400
vt 0.952700 0.212700
vt 0.958100 0.211500
vt 0.957900 0.212800
vt 0.018500 0.607200
vt 0.018500 0.608500
vt 0.013300 0.608600
vt 0.024500 0.607100
vt 0.659600 0.607300
vt 0.659700 0.608600
vt 0.665600 0.607400
vt 0.665600 0.608600
vt 0.671000 0.607500
vt 0.670800 0.608800
vt 0.606800 0.169600
vt 0.606800 0.170900
vt 0.601600 0.171100
vt 0.612800 0.169600
vt 0.657600 0.991400
vt 0.657600 0.992700
vt 0.663600 0.991400
vt 0.663600 0.992700
vt 0.669000 0.991500
vt 0.668800 0.992800
vt 0.604200 0.210700
vt 0.604300 0.212000
vt 0.599000 0.212100
vt 0.610200 0.210700
vt 0.949100 0.170200
vt 0.949100 0.171600
vt 0.955100 0.170300
vt 0.955100 0.171600
vt 0.960500 0.170400
vt 0.960300 0.171700
vt 0.016400 0.991200
vt 0.016400 0.992500
vt 0.011200 0.992700
vt 0.022400 0.991200
vt 0.029200 0.592900
vt 0.655000 0.593100
vt 0.617500 0.155400
vt 0.944500 0.156000
vt 0.614900 0.196400
vt 0.942100 0.197000
vt 0.027000 0.977000
vt 0.652900 0.977200
vt 0.024400 0.592900
vt 0.612700 0.155400
vt 0.610200 0.196400
vt 0.022300 0.977000
vt 0.946800 0.197100
vt 0.952900 0.197100
vt 0.958400 0.197200
vt 0.012900 0.593100
vt 0.018400 0.593000
vt 0.659700 0.593100
vt 0.665800 0.593200
vt 0.671300 0.593200
vt 0.601200 0.155500
vt 0.606600 0.155400
vt 0.657700 0.977200
vt 0.663800 0.977200
vt 0.669200 0.977300
vt 0.598600 0.196500
vt 0.604100 0.196500
vt 0.949200 0.156000
vt 0.955300 0.156100
vt 0.960800 0.156200
vt 0.010800 0.977100
vt 0.016200 0.977000
vt 0.030500 0.588300
vt 0.030500 0.222600
vt 0.655000 0.588300
vt 0.646200 0.614300
vt 0.650400 0.614600
vt 0.646000 0.971500
vt 0.662300 0.952700
vt 0.661900 0.962800
vt 0.659300 0.967100
vt 0.659700 0.618800
vt 0.662400 0.623100
vt 0.663000 0.633200
vt 0.655000 0.222600
vt 0.659700 0.222900
vt 0.675000 0.568200
vt 0.673000 0.578700
vt 0.670000 0.583300
vt 0.670000 0.227600
vt 0.673000 0.232200
vt 0.675000 0.242700
vt 0.033300 0.614300
vt 0.033100 0.971600
vt 0.029000 0.614600
vt 0.028900 0.971200
vt 0.023800 0.616200
vt 0.023600 0.969600
vt 0.019600 0.967000
vt 0.017400 0.623000
vt 0.016900 0.962700
vt 0.025800 0.588000
vt 0.015500 0.583300
vt 0.012500 0.578700
vt 0.010400 0.568200
vt 0.010400 0.242700
vt 0.012500 0.232200
vt 0.015500 0.227600
vt 0.650300 0.971200
vt 0.655700 0.616200
vt 0.655500 0.969600
vt 0.659700 0.588000
vt 0.665500 0.224600
vt 0.665500 0.586300
vt 0.025800 0.222900
vt 0.020000 0.586300
vt 0.020000 0.224600
vt 0.013100 0.607300
vt 0.601300 0.169700
vt 0.598800 0.210800
vt 0.011000 0.991300
vt 0.662400 0.957200
vt 0.663000 0.628700
vt 0.674700 0.572900
vt 0.674700 0.238000
vt 0.016900 0.628600
vt 0.016300 0.957100
vt 0.010700 0.572900
vt 0.010800 0.238000
vn -0.0000 1.0000 0.0000
vn 0.0308 0.3758 0.9262
vn 0.0237 0.7009 0.7129
vn -0.0238 0.7008 0.7129
vn 0.9262 0.3758 -0.0308
vn 0.7129 0.7009 -0.0237
vn 0.7129 0.7008 0.0238
vn -0.9262 0.3758 0.0308
vn -0.7129 0.7009 0.0237
vn -0.7129 0.7008 -0.0238
vn -0.0308 0.3758 -0.9262
vn -0.0237 0.7009 -0.7129
vn 0.0238 0.7008 -0.7129
vn -0.0308 0.3758 0.9262
vn -0.1271 0.7016 0.7012
vn 0.9262 0.3758 0.0308
vn 0.7012 0.7016 0.1271
vn -0.9262 0.3758 -0.0308
vn -0.7012 0.7016 -0.1271
vn 0.0308 0.3758 -0.9262
vn 0.1271 0.7016 -0.7012
vn -0.9145 0.3700 0.1637
vn -0.7012 0.7015 0.1273
vn -0.8439 0.3668 0.3915
vn -0.6474 0.7006 0.3001
vn -0.6586 0.3642 0.6585
vn -0.5024 0.7038 0.5022
vn -0.3915 0.3667 0.8439
vn -0.3001 0.7007 0.6473
vn -0.1636 0.3700 0.9145
vn 0.1637 0.3700 0.9145
vn 0.1273 0.7015 0.7012
vn 0.3915 0.3668 0.8439
vn 0.2999 0.7019 0.6461
vn 0.6568 0.3730 0.6553
vn 0.4937 0.7185 0.4899
vn 0.8431 0.3675 0.3925
vn 0.6459 0.7007 0.3029
vn 0.4937 0.7185 0.4900
vn 0.9145 0.3700 0.1636
vn -0.1637 0.3700 -0.9145
vn -0.1273 0.7015 -0.7012
vn -0.3915 0.3668 -0.8439
vn -0.3001 0.7006 -0.6474
vn -0.6585 0.3642 -0.6586
vn -0.5022 0.7038 -0.5024
vn -0.8439 0.3668 -0.3915
vn -0.6471 0.7009 -0.3000
vn -0.9145 0.3700 -0.1636
vn 0.9144 0.3701 -0.1637
vn 0.7011 0.7016 -0.1272
vn 0.8439 0.3669 -0.3915
vn 0.6473 0.7007 -0.3000
vn 0.6586 0.3642 -0.6585
vn 0.5024 0.7038 -0.5022
vn 0.3915 0.3667 -0.8439
vn 0.3001 0.7008 -0.6472
vn 0.1636 0.3700 -0.9145
vn -0.0333 0.0000 0.9994
vn 0.0333 0.0000 0.9994
vn 0.9994 0.0000 0.0333
vn 0.9994 0.0000 -0.0333
vn -0.9994 0.0000 -0.0333
vn -0.9994 0.0000 0.0333
vn 0.0333 0.0000 -0.9994
vn -0.0333 0.0000 -0.9994
vn -0.1768 0.0000 0.9842
vn 0.9842 0.0000 0.1768
vn -0.9842 0.0000 -0.1768
vn 0.1768 0.0000 -0.9842
vn -0.9842 0.0000 0.1768
vn -0.9071 0.0000 0.4209
vn -0.7071 0.0000 0.7071
vn -0.4209 0.0000 0.9071
vn 0.1768 0.0000 0.9842
vn 0.4209 0.0000 0.9071
vn 0.7071 0.0000 0.7071
vn 0.9071 0.0000 0.4209
vn -0.1768 0.0000 -0.9842
vn -0.4209 0.0000 -0.9071
vn -0.7071 0.0000 -0.7071
vn -0.9071 0.0000 -0.4209
vn 0.9842 0.0000 -0.1768
vn 0.9071 0.0000 -0.4209
vn 0.7071 0.0000 -0.7071
vn 0.4209 0.0000 -0.9071
vn 0.0000 -1.0000 -0.0000
usemtl table
s 1
f 1/1/1 2/2/1 3/3/1
f 4/4/2 5/5/3 6/6/4
f 7/7/5 8/8/6 9/9/7
f 10/10/8 1/11/9 3/12/10
f 11/13/11 12/14/12 13/15/13
f 14/16/14 6/6/4 15/17/15
f 16/18/16 9/9/7 17/19/17
f 18/20/18 3/12/10 19/21/19
f 20/22/20 13/15/13 21/23/21
f 22/24/22 23/25/23 1/11/9
f 24/26/24 25/27/25 23/25/23
f 26/28/26 2/29/27 25/27/25
f 27/30/28 28/31/29 2/32/27
f 29/33/30 15/17/15 28/31/29
f 30/34/31 31/35/32 5/5/3
f 32/36/33 33/37/34 31/35/32
f 34/38/35 35/39/36 33/37/34
f 36/40/37 37/41/38 35/42/39
f 38/43/40 17/19/17 37/41/38
f 39/44/41 40/45/42 12/14/12
f 41/46/43 42/47/44 40/45/42
f 43/48/45 44/49/46 42/47/44
f 45/50/47 46/51/48 44/52/46
f 47/53/49 19/21/19 46/51/48
f 48/54/50 49/55/51 8/8/6
f 50/56/52 51/57/53 49/55/51
f 52/58/54 53/59/55 51/57/53
f 54/60/56 55/61/57 53/62/55
f 56/63/58 21/23/21 55/61/57
f 4/4/2 57/64/59 58/65/60
f 7/7/5 59/66/61 60/67/62
f 10/10/8 61/68/63 62/69/64
f 11/13/11 63/70/65 64/71/66
f 14/16/14 65/72/67 57/64/59
f 16/18/16 66/73/68 59/66/61
f 18/20/18 67/74/69 61/68/63
f 20/22/20 68/75/70 63/70/65
f 22/24/22 62/69/64 69/76/71
f 24/26/24 69/76/71 70/77/72
f 26/28/26 70/77/72 71/78/73
f 27/30/28 71/79/73 72/80/74
f 29/33/30 72/80/74 65/72/67
f 30/34/31 58/65/60 73/81/75
f 32/36/33 73/81/75 74/82/76
f 34/38/35 74/82/76 75/83/77
f 36/40/37 75/84/77 76/85/78
f 38/43/40 76/85/78 66/73/68
f 39/44/41 64/71/66 77/86/79
f 41/46/43 77/86/79 78/87/80
f 43/48/45 78/87/80 79/88/81
f 45/50/47 79/89/81 80/90/82
f 47/53/49 80/90/82 67/74/69
f 48/54/50 60/67/62 81/91/83
f 50/56/52 81/91/83 82/92/84
f 52/58/54 82/92/84 83/93/85
f 54/60/56 83/94/85 84/95/86
f 56/63/58 84/95/86 68/75/70
f 57/96/87 64/97/87 58/98/87
f 5/99/1 31/100/1 13/101/1
f 8/102/1 51/103/1 53/104/1
f 35/105/1 37/106/1 9/107/1
f 63/108/87 68/109/87 58/98/87
f 59/110/87 76/111/87 75/112/87
f 83/113/87 82/114/87 60/115/87
f 6/116/1 5/99/1 12/117/1
f 15/118/1 6/116/1 40/119/1
f 28/120/1 15/118/1 42/121/1
f 2/2/1 28/120/1 44/122/1
f 1/1/1 25/123/1 2/2/1
f 44/122/1 46/124/1 3/3/1
f 57/96/87 65/125/87 64/97/87
f 71/126/87 70/127/87 62/128/87
f 61/129/87 80/130/87 79/131/87
f 31/100/1 21/132/1 13/101/1
f 33/133/1 55/134/1 21/132/1
f 35/105/1 53/104/1 55/134/1
f 9/107/1 8/102/1 53/104/1
f 68/109/87 73/135/87 58/98/87
f 84/136/87 74/137/87 73/135/87
f 83/113/87 75/112/87 74/137/87
f 60/115/87 59/110/87 75/112/87
f 65/125/87 77/138/87 64/97/87
f 72/139/87 78/140/87 77/138/87
f 71/126/87 79/131/87 78/140/87
f 62/128/87 61/129/87 79/131/87
f 2/2/1 44/122/1 3/3/1
f 6/6/4 14/16/14 4/4/2
f 9/9/7 16/18/16 7/7/5
f 3/12/10 18/20/18 10/10/8
f 13/15/13 20/22/20 11/13/11
f 15/17/15 29/33/30 14/16/14
f 17/19/17 38/43/40 16/18/16
f 19/21/19 47/53/49 18/20/18
f 21/23/21 56/63/58 20/22/20
f 1/11/9 10/10/8 22/24/22
f 23/25/23 22/24/22 24/26/24
f 25/27/25 24/26/24 26/28/26
f 2/32/27 26/141/26 27/30/28
f 28/31/29 27/30/28 29/33/30
f 5/5/3 4/4/2 30/34/31
f 31/35/32 30/34/31 32/36/33
f 33/37/34 32/36/33 34/38/35
f 35/42/39 34/142/35 36/40/37
f 37/41/38 36/40/37 38/43/40
f 12/14/12 11/13/11 39/44/41
f 40/45/42 39/44/41 41/46/43
f 42/47/44 41/46/43 43/48/45
f 44/52/46 43/143/45 45/50/47
f 46/51/48 45/50/47 47/53/49
f 8/8/6 7/7/5 48/54/50
f 49/55/51 48/54/50 50/56/52
f 51/57/53 50/56/52 52/58/54
f 53/62/55 52/144/54 54/60/56
f 55/61/57 54/60/56 56/63/58
f 4/4/2 14/16/14 57/64/59
f 7/7/5 16/18/16 59/66/61
f 10/10/8 18/20/18 61/68/63
f 11/13/11 20/22/20 63/70/65
f 14/16/14 29/33/30 65/72/67
f 16/18/16 38/43/40 66/73/68
f 18/20/18 47/53/49 67/74/69
f 20/22/20 56/63/58 68/75/70
f 22/24/22 10/10/8 62/69/64
f 24/26/24 22/24/22 69/76/71
f 26/28/26 24/26/24 70/77/72
f 27/30/28 26/141/26 71/79/73
f 29/33/30 27/30/28 72/80/74
f 30/34/31 4/4/2 58/65/60
f 32/36/33 30/34/31 73/81/75
f 34/38/35 32/36/33 74/82/76
f 36/40/37 34/142/35 75/84/77
f 38/43/40 36/40/37 76/85/78
f 39/44/41 11/13/11 64/71/66
f 41/46/43 39/44/41 77/86/79
f 43/48/45 41/46/43 78/87/80
f 45/50/47 43/143/45 79/89/81
f 47/53/49 45/50/47 80/90/82
f 48/54/50 7/7/5 60/67/62
f 50/56/52 48/54/50 81/91/83
f 52/58/54 50/56/52 82/92/84
f 54/60/56 52/144/54 83/94/85
f 56/63/58 54/60/56 84/95/86
f 64/97/87 63/108/87 58/98/87
f 8/102/1 49/145/1 51/103/1
f 37/106/1 17/146/1 9/107/1
f 59/110/87 66/147/87 76/111/87
f 82/114/87 81/148/87 60/115/87
f 5/99/1 13/101/1 12/117/1
f 6/116/1 12/117/1 40/119/1
f 15/118/1 40/119/1 42/121/1
f 28/120/1 42/121/1 44/122/1
f 1/1/1 23/149/1 25/123/1
f 46/124/1 19/150/1 3/3/1
f 70/127/87 69/151/87 62/128/87
f 61/129/87 67/152/87 80/130/87
f 31/100/1 33/133/1 21/132/1
f 33/133/1 35/105/1 55/134/1
f 35/105/1 9/107/1 53/104/1
f 68/109/87 84/136/87 73/135/87
f 84/136/87 83/113/87 74/137/87
f 83/113/87 60/115/87 75/112/87
f 65/125/87 72/139/87 77/138/87
f 72/139/87 71/126/87 78/140/87
f 71/126/87 62/128/87 79/131/87
o Table
v -84.388100 78.157394 45.243313
v -76.775803 0.002093 43.910000
v -75.677696 78.157394 45.243313
v -75.452202 78.157394 45.017811
v -76.775803 0.002094 37.338799
v -75.452202 78.157394 36.231010
v -75.677696 78.157394 36.005512
v -83.290001 0.002094 37.338902
v -84.388100 78.157394 36.005512
v -84.613602 78.157394 36.231010
v -83.290001 0.002093 43.910000
v -84.613602 78.157394 45.017811
v 84.391197 78.157295 45.250713
v 76.771599 -0.002107 43.914101
v 83.294098 -0.002107 43.914101
v 75.444801 78.157295 45.020912
v 76.771599 -0.002106 37.334702
v 75.674599 78.157295 35.998112
v 83.294098 -0.002106 37.334702
v 84.620903 78.157295 36.227913
v 84.620903 78.157295 45.020912
v 75.674599 78.157295 45.250713
v 75.444801 78.157295 36.227913
v 84.391197 78.157295 35.998112
v -84.391502 78.157211 -45.251587
v -76.771103 0.000007 -43.914600
v -83.294601 0.000007 -43.914600
v -75.443901 78.157211 -45.021290
v -76.771103 0.000006 -37.334202
v -75.674202 78.157211 -35.997189
v -83.294601 0.000006 -37.334202
v -84.621902 78.157211 -36.227489
v -84.621902 78.157211 -45.021290
v -75.674202 78.157211 -45.251587
v -75.443901 78.157211 -36.227489
v -84.391502 78.157211 -35.997189
v 84.391502 78.157211 -45.251587
v 76.771103 0.000007 -43.914600
v 75.674202 78.157211 -45.251587
v 75.443901 78.157211 -45.021290
v 76.771103 0.000006 -37.334202
v 75.443901 78.157211 -36.227489
v 75.674202 78.157211 -35.997189
v 83.294601 0.000006 -37.334202
v 84.391502 78.157211 -35.997189
v 84.621902 78.157211 -36.227489
v 83.294601 0.000007 -43.914600
v 84.621902 78.157211 -45.021290
v -77.730400 78.214790 36.402912
v -77.730400 68.383011 -36.789188
v -77.730400 78.214806 -36.789188
v -78.207802 67.905594 36.402912
v -82.330902 67.905609 -36.789188
v -78.207802 67.905609 -36.789188
v -82.808296 68.382996 36.402912
v -82.808296 78.214806 -36.789188
v -82.808296 68.383011 -36.789188
v -77.730400 68.382996 36.402912
v -82.330902 67.905594 36.402912
v 77.730400 78.214790 36.402912
v 77.730400 68.383011 -36.789188
v 77.730400 68.382996 36.402912
v 78.207802 67.905594 36.402912
v 82.330902 67.905609 -36.789188
v 82.330902 67.905594 36.402912
v 82.808296 68.382996 36.402912
v 82.808296 78.214806 -36.789188
v 82.808296 78.214790 36.402912
v 78.207802 67.905609 -36.789188
v 82.808296 68.383011 -36.789188
v -76.146698 67.886391 42.863510
v 76.146698 67.886391 38.385410
v 76.146698 67.886391 42.863510
v -76.146698 68.205490 38.066212
v 76.146698 78.121391 38.066212
v 76.146698 68.205490 38.066212
v 76.146698 78.121391 43.182610
v -76.146698 68.205490 43.182610
v 76.146698 68.205490 43.182610
v -76.146698 67.886406 -42.863487
v 76.146698 67.886406 -38.385387
v -76.146698 67.886406 -38.385387
v -76.146698 68.205505 -38.066189
v 76.146698 78.121407 -38.066189
v -76.146698 78.121407 -38.066189
v 76.146698 78.121407 -43.182587
v -76.146698 68.205505 -43.182587
v -76.146698 78.121407 -43.182587
v 76.146698 68.205505 -43.182587
v -82.808296 78.214790 36.402912
v 77.730400 78.214806 -36.789188
v -76.146698 67.886391 38.385410
v -76.146698 78.121391 38.066212
v -76.146698 78.121391 43.182610
v 76.146698 67.886406 -42.863487
v 76.146698 68.205505 -38.066189
vt 0.865800 0.362500
vt 0.837900 0.648600
vt 0.833900 0.362500
vt 0.830400 0.363600
vt 0.802600 0.649800
vt 0.798200 0.363700
vt 0.795400 0.363600
vt 0.767600 0.649800
vt 0.763500 0.363600
vt 0.898700 0.362200
vt 0.870400 0.648300
vt 0.866500 0.362200
vt 0.861000 0.685400
vt 0.837100 0.685400
vt 0.861000 0.661400
vt 0.865300 0.362200
vt 0.826600 0.649800
vt 0.831500 0.363600
vt 0.797000 0.363700
vt 0.894500 0.648300
vt 0.899800 0.362200
vt 0.982200 0.990100
vt 0.949500 0.703800
vt 0.973500 0.703700
vt 0.940200 0.989800
vt 0.912300 0.703200
vt 0.935900 0.703200
vt 0.902600 0.991100
vt 0.879300 0.704300
vt 0.903200 0.704400
vt 0.865400 0.989600
vt 0.837400 0.703000
vt 0.863800 0.703000
vt 0.918700 0.661000
vt 0.943500 0.661000
vt 0.943500 0.686000
vt 0.836100 0.989600
vt 0.835900 0.989600
vt 0.950100 0.990500
vt 0.948900 0.990500
vt 0.903800 0.991000
vt 0.865100 0.989600
vt 0.940300 0.647500
vt 0.913500 0.372500
vt 0.936400 0.372500
vt 0.715800 0.640600
vt 0.692000 0.365300
vt 0.715100 0.365600
vt 0.987700 0.649200
vt 0.960900 0.374200
vt 0.983900 0.374200
vt 0.757400 0.643000
vt 0.732000 0.367800
vt 0.755200 0.368000
vt 0.744700 0.685100
vt 0.721800 0.685100
vt 0.721700 0.662000
vt 0.725300 0.642800
vt 0.726500 0.642900
vt 0.717000 0.640600
vt 0.988900 0.649200
vt 0.758600 0.643000
vt 0.689800 0.982000
vt 0.717700 0.696000
vt 0.719400 0.982000
vt 0.727200 0.988100
vt 0.755400 0.702200
vt 0.759400 0.988100
vt 0.765000 0.992100
vt 0.792900 0.706100
vt 0.794600 0.992100
vt 0.800500 0.993500
vt 0.828600 0.707500
vt 0.832700 0.993500
vt 0.803000 0.664800
vt 0.803000 0.688700
vt 0.779000 0.664800
vt 0.689800 0.982000
vt 0.691500 0.696000
vt 0.719400 0.982000
vt 0.766700 0.706100
vt 0.765000 0.992100
vt 0.794700 0.992100
vt 0.700500 0.349900
vt 0.967300 0.314000
vt 0.967300 0.349900
vt 0.700500 0.305400
vt 0.967300 0.290400
vt 0.967300 0.305400
vt 0.699500 0.284100
vt 0.966300 0.248200
vt 0.966300 0.284100
vt 0.700500 0.314000
vt 0.967300 0.311600
vt 0.699500 0.286500
vt 0.966300 0.286500
vt 0.720600 0.011600
vt 0.987400 0.047500
vt 0.720600 0.047500
vt 0.721600 0.062500
vt 0.988300 0.077500
vt 0.721600 0.077500
vt 0.719200 0.091400
vt 0.986000 0.127200
vt 0.719200 0.127200
vt 0.987400 0.049900
vt 0.720600 0.049900
vt 0.719200 0.088900
vt 0.986000 0.091400
vt 0.562700 0.201300
vt 0.007600 0.217700
vt 0.007600 0.201300
vt 0.564000 0.052600
vt 0.008900 0.088700
vt 0.008900 0.052600
vt 0.006600 0.139700
vt 0.561700 0.175900
vt 0.006600 0.175900
vt 0.561700 0.177500
vt 0.006600 0.177500
vt 0.008900 0.050900
vt 0.561100 0.198300
vt 0.006000 0.182000
vt 0.561100 0.182000
vt 0.563400 0.045500
vt 0.008300 0.009300
vt 0.563400 0.009300
vt 0.007500 0.133700
vt 0.562700 0.097600
vt 0.562700 0.133700
vt 0.007500 0.097600
vt 0.562700 0.095900
vt 0.008300 0.047100
vt 0.563400 0.047100
vt 0.861700 0.648600
vt 0.791400 0.649800
vt 0.837200 0.661400
vt 0.907900 0.989800
vt 0.870600 0.990700
vt 0.918700 0.686000
vt 0.909600 0.647500
vt 0.684900 0.640300
vt 0.957100 0.649200
vt 0.744700 0.662000
vt 0.731300 0.702200
vt 0.804600 0.707500
vt 0.779000 0.688700
vt 0.700500 0.290400
vt 0.699500 0.248200
vt 0.700500 0.311600
vt 0.987400 0.011600
vt 0.988300 0.062500
vt 0.986000 0.088900
vt 0.562700 0.217700
vt 0.564000 0.088700
vt 0.561700 0.139700
vt 0.564000 0.050900
vt 0.006000 0.198300
vt 0.008300 0.045500
vt 0.007500 0.095900
vn 0.0000 -0.0171 0.9999
vn 0.9231 -0.0211 0.3841
vn 0.9999 -0.0170 -0.0018
vn 0.9231 -0.0211 -0.3841
vn -0.0000 -0.0171 -0.9999
vn -0.9231 -0.0211 -0.3841
vn -0.9999 -0.0170 0.0018
vn -0.9231 -0.0211 0.3841
vn -0.0000 -1.0000 -0.0000
vn -0.7069 -0.0220 0.7069
vn 0.9999 -0.0170 0.0018
vn 0.7069 -0.0220 0.7069
vn 0.7069 -0.0220 -0.7069
vn -0.9999 -0.0170 -0.0018
vn -0.7069 -0.0220 -0.7069
vn -0.0019 -0.0171 0.9999
vn -0.9999 -0.0170 0.0000
vn -0.3840 -0.0212 -0.9231
vn -0.0019 -0.0171 -0.9999
vn 0.9231 -0.0211 -0.3840
vn 0.9999 -0.0170 0.0019
vn 0.9999 -0.0170 -0.0019
vn 0.7071 -0.0220 0.7068
vn 0.9231 -0.0211 0.3840
vn -0.3840 -0.0212 0.9231
vn 0.7071 -0.0220 -0.7068
vn 0.9999 -0.0170 0.0000
vn 0.3840 -0.0212 0.9231
vn 0.0019 -0.0171 0.9999
vn -0.9230 -0.0211 0.3842
vn -0.9999 -0.0170 -0.0019
vn -0.9999 -0.0170 0.0019
vn -0.7068 -0.0220 -0.7071
vn -0.9230 -0.0211 -0.3842
vn -0.7068 -0.0220 0.7071
vn 0.3839 -0.0212 -0.9231
vn 0.3839 -0.0212 0.9231
vn 0.7068 -0.0220 -0.7071
vn 0.0019 -0.0171 -0.9999
vn 0.7068 -0.0220 0.7071
vn 1.0000 0.0000 0.0000
vn 0.9239 -0.3827 -0.0000
vn -0.9239 -0.3827 -0.0000
vn -1.0000 0.0000 0.0000
vn 0.7071 -0.7071 -0.0000
vn -0.7071 -0.7071 -0.0000
vn 0.0000 -0.3827 -0.9239
vn 0.0000 0.0000 -1.0000
vn 0.0000 -0.3828 -0.9238
vn 0.0000 0.0000 1.0000
vn 0.0000 -0.3827 0.9239
vn 0.0000 -0.7071 0.7071
vn 0.0000 -0.7072 -0.7070
vn 0.0000 -0.7071 -0.7071
vn 0.0000 -0.7072 0.7070
vn 0.0000 -0.3828 0.9238
usemtl table
s 1
f 85/153/88 86/154/88 87/155/88
f 88/156/89 89/157/90 90/158/91
f 91/159/92 92/160/92 93/161/92
f 94/162/93 95/163/94 96/164/95
f 92/165/96 89/166/96 95/167/96
f 85/168/97 96/164/95 95/163/94
f 86/169/98 88/156/89 87/170/99
f 89/157/90 91/171/100 90/158/91
f 92/172/101 94/162/93 93/173/102
f 97/174/88 98/175/103 99/176/88
f 100/177/104 101/178/104 98/179/104
f 102/180/105 103/181/92 101/182/106
f 104/183/107 99/184/108 103/185/109
f 99/186/96 98/187/96 101/188/96
f 97/189/110 99/184/108 105/190/111
f 106/191/112 100/192/97 98/175/103
f 107/193/102 102/180/105 101/182/106
f 108/194/113 104/183/107 103/185/109
f 109/195/92 110/196/92 111/197/92
f 112/198/91 113/199/114 110/200/109
f 114/201/115 115/202/88 113/203/116
f 116/204/117 111/205/118 115/206/119
f 111/207/96 110/208/96 113/209/96
f 109/210/120 111/205/118 117/211/121
f 118/212/100 112/198/91 110/200/109
f 119/213/99 114/201/115 113/203/116
f 120/214/122 116/204/117 115/206/119
f 121/215/123 122/216/106 123/217/105
f 124/218/104 125/219/104 126/220/104
f 127/221/112 128/222/116 129/223/124
f 130/224/114 131/225/114 132/226/114
f 128/227/96 125/228/96 131/229/96
f 121/215/123 132/230/125 131/231/126
f 122/216/106 124/232/102 123/217/105
f 125/233/103 127/221/112 126/234/97
f 128/222/116 130/235/127 129/223/124
f 133/236/128 134/237/129 135/238/128
f 136/239/96 137/240/96 138/241/96
f 139/242/130 140/243/131 141/244/130
f 142/245/129 138/246/132 134/237/129
f 143/247/133 141/244/130 137/248/133
f 144/249/131 145/250/130 146/251/130
f 147/252/96 148/253/96 149/254/96
f 150/255/129 151/256/128 152/257/128
f 146/251/130 153/258/133 147/259/133
f 149/260/132 154/261/129 150/255/129
f 155/262/96 156/263/96 157/264/96
f 158/265/134 159/266/135 160/267/136
f 161/268/137 162/269/138 163/270/138
f 163/270/138 155/271/139 157/272/139
f 156/273/140 158/265/134 160/267/136
f 164/274/96 165/275/96 166/276/96
f 167/277/138 168/278/137 169/279/137
f 170/280/135 171/281/134 172/282/135
f 173/283/134 164/284/141 171/281/134
f 165/285/142 167/277/138 166/286/142
f 85/153/88 95/287/88 86/154/88
f 88/156/89 86/169/98 89/157/90
f 91/159/92 89/288/92 92/160/92
f 94/162/93 92/172/101 95/163/94
f 89/166/96 86/289/96 95/167/96
f 97/174/88 106/191/112 98/175/103
f 100/177/104 107/290/104 101/178/104
f 102/180/105 108/291/92 103/181/92
f 104/183/107 105/190/111 99/184/108
f 101/188/96 103/292/96 99/186/96
f 109/195/92 118/293/92 110/196/92
f 112/198/91 119/294/114 113/199/114
f 114/201/115 120/295/88 115/202/88
f 116/204/117 117/211/121 111/205/118
f 113/209/96 115/296/96 111/207/96
f 121/215/123 131/231/126 122/216/106
f 124/218/104 122/297/104 125/219/104
f 127/221/112 125/233/103 128/222/116
f 130/224/114 128/298/114 131/225/114
f 125/228/96 122/299/96 131/229/96
f 133/236/128 142/245/129 134/237/129
f 136/239/96 143/300/96 137/240/96
f 139/242/130 174/301/131 140/243/131
f 142/245/129 136/302/132 138/246/132
f 143/247/133 139/242/130 141/244/130
f 144/249/131 175/303/131 145/250/130
f 147/252/96 153/304/96 148/253/96
f 150/255/129 154/261/129 151/256/128
f 146/251/130 145/250/130 153/258/133
f 149/260/132 148/305/132 154/261/129
f 155/262/96 176/306/96 156/263/96
f 158/265/134 177/307/135 159/266/135
f 161/268/137 178/308/137 162/269/138
f 163/270/138 162/269/138 155/271/139
f 156/273/140 176/309/140 158/265/134
f 164/274/96 179/310/96 165/275/96
f 167/277/138 180/311/143 168/278/137
f 170/280/135 173/283/134 171/281/134
f 173/283/134 179/312/141 164/284/141
f 165/285/142 180/311/143 167/277/138
